<svg width="512" height="512" viewBox="0 0 200 200" fill="none" xmlns="http://www.w3.org/2000/svg">
  <rect width="200" height="200" fill="#0F172A"/>
  <defs>
    <linearGradient id="iconGradient" x1="0%" y1="0%" x2="100%" y2="100%">
      <stop offset="0%" style="stop-color:#00D4FF"/>
      <stop offset="50%" style="stop-color:#6366F1"/>
      <stop offset="100%" style="stop-color:#8B5CF6"/>
    </linearGradient>
    <radialGradient id="centerGlow" cx="50%" cy="50%" r="50%">
      <stop offset="0%" style="stop-color:#D946EF"/>
      <stop offset="70%" style="stop-color:#A855F7"/>
      <stop offset="100%" style="stop-color:#7C3AED"/>
    </radialGradient>
  </defs>
  <g stroke="url(#iconGradient)" stroke-width="10" fill="none" stroke-linecap="round" stroke-linejoin="round">
    <path d="M 65 35 L 45 55 Q 35 70 45 85 L 55 100 L 45 115 Q 35 130 45 145 L 65 165"/>
    <path d="M 135 35 L 155 55 Q 165 70 155 85 L 145 100 L 155 115 Q 165 130 155 145 L 135 165"/>
    <path d="M 65 35 L 100 20 L 135 35"/>
    <path d="M 65 165 L 100 180 L 135 165"/>
  </g>
  <circle cx="100" cy="100" r="18" fill="url(#centerGlow)"/>
  <circle cx="100" cy="100" r="10" fill="#F0ABFC" opacity="0.9"/>
</svg>
