<?xml version="1.0" encoding="utf-8"?>
<!DOCTYPE svg PUBLIC "-//W3C//DTD SVG 1.0//EN" "http://www.w3.org/TR/2001/REC-SVG-20010904/DTD/svg10.dtd">
<svg version="1.0" xmlns="http://www.w3.org/2000/svg" width="274px" height="240px" viewBox="0 0 274 240" preserveAspectRatio="xMidYMid meet">
 <g fill="#0f1333">
  <path d="M131.6 209.7 c-1.7 -1.3 -1.8 -1.7 -0.5 -4.5 1.6 -3.6 3.1 -3.7 3.9 -0.1 0.6 2.3 4 4.1 4 2.1 0 -1.5 6.1 -3.7 6.8 -2.5 0.4 0.5 1.4 1.2 2.2 1.5 2.1 0.8 -4.2 3.4 -10 4.3 -3.2 0.4 -5.1 0.2 -6.4 -0.8z"/>
  <path d="M155 204.2 c0 -2.2 2.4 -3.4 10 -5.2 3 -0.7 7.5 -1.9 9.9 -2.6 5 -1.6 11.1 -1.8 11.1 -0.5 0 1.4 -6.3 4 -13.6 5.5 -3.8 0.8 -8.6 2.2 -10.6 3 -4.9 2.1 -6.8 2 -6.8 -0.2z"/>
  <path d="M103.7 198.6 c-0.3 -0.8 -2.6 -1.6 -5.4 -1.9 -7.5 -0.8 -20.4 -3.5 -24.8 -5.1 -2.2 -0.8 -5.4 -1.5 -7.2 -1.6 -4.3 0 -13.3 -3.6 -13.3 -5.2 0 -1.7 9.8 -0.2 25 3.8 7.7 2 25 5.4 27.8 5.4 2.1 0 2.3 -0.4 2 -4.6 -0.4 -5.5 -0.8 -5.8 -10.5 -7.4 -6.3 -1 -7.3 -1.5 -7.3 -3.2 0 -1.8 0.4 -2 3.8 -1.4 2 0.4 6.2 1.1 9.2 1.5 7.9 1 12.4 4.5 8.9 6.7 -0.7 0.4 -0.9 2.4 -0.5 5.5 0.8 5.9 -0.7 8.9 -4.5 8.9 -1.5 0 -2.9 -0.6 -3.2 -1.4z"/>
  <path d="M188 195 c0 -1.1 0.2 -2 0.5 -2 0.8 0 31.7 -7.9 35.8 -9.2 l3.7 -1.1 0 -5.9 c0 -4.3 0.4 -5.8 1.4 -5.8 0.7 0 1.6 1 2 2.3 0.8 3.1 0.7 9.7 -0.1 9.7 -0.5 0 -1.6 1.4 -2.5 3 -1.6 2.9 -4.8 4.2 -4.8 2 0 -0.6 -1 -0.4 -2.2 0.4 -1.3 0.8 -4.3 1.7 -6.8 2.1 -2.5 0.4 -5.4 1.4 -6.5 2.1 -1.1 0.8 -3.2 1.4 -4.8 1.4 -1.5 0 -4.4 0.7 -6.4 1.5 -5.2 2.2 -9.3 2 -9.3 -0.5z"/>
  <path d="M133.3 194.5 c-2 -2.2 -0.5 -4.2 4.5 -5.8 7.7 -2.5 24.4 -6.5 29.4 -7.1 2.6 -0.3 5.6 -1 6.7 -1.5 1.1 -0.6 3 -1.1 4.3 -1.1 1.3 0 6.8 -1.1 12.2 -2.5 11.7 -3 12.6 -3 12.6 -0.7 0 1.8 -4.2 3 -28 8.2 -24.5 5.5 -39 9.4 -39 10.7 0 1.7 -1.2 1.6 -2.7 -0.2z"/>
  <path d="M42.5 185.3 c-1.1 -0.3 -2.4 -1.2 -2.8 -1.9 -0.5 -0.8 -1.2 -1.2 -1.6 -0.9 -1.6 0.9 -3.1 -2.2 -3 -6.1 0.3 -7.4 1 -10.4 2.4 -10.4 1.1 0 1.5 1.4 1.5 5.8 0.1 7.3 1.4 8.9 7.8 9.8 4 0.5 5.2 1.1 5.2 2.4 0 1.3 -0.9 1.7 -3.7 1.7 -2.1 0 -4.7 -0.2 -5.8 -0.4z"/>
  <path d="M74.3 177.7 c-4 -0.8 -5.3 -1.5 -5.3 -2.9 0 -1.5 0.6 -1.7 4.3 -1.2 9.6 1.2 14.7 2.6 14.7 4 0 1.6 -5.5 1.7 -13.7 0.1z"/>
  <path d="M55.5 173.1 l-7 -1.6 -0.3 -16.3 c-0.2 -13.4 0 -16.2 1.2 -16.2 2 0 2.6 3.5 2.5 16.1 -0.1 12.8 0.5 15.3 3.2 14.6 1.1 -0.3 1.9 0 1.9 0.5 0 0.6 1.2 0.8 3 0.5 1.8 -0.4 3 -0.2 3 0.4 0 0.6 0.6 0.9 1.2 0.7 1.2 -0.4 3.8 1.4 3.8 2.6 0 1 -5.2 0.5 -12.5 -1.3z"/>
  <path d="M207.6 174.1 c-0.4 -0.6 0 -1.1 1 -1.1 1 0 1.4 -0.3 1 -0.7 -0.4 -0.4 0.8 -1.3 2.6 -1.9 3 -1 3.3 -1.5 3.4 -5 0.1 -6.5 0.3 -7.4 2 -7.4 1.5 0 1.6 1 1 7.7 -0.3 4.2 -0.8 7.8 -1.1 8.1 -1 1.1 -9.3 1.4 -9.9 0.3z"/>
  <path d="M162 167.1 c-3.1 -0.9 -4.5 -4.6 -3.6 -9.4 0.5 -2.9 1.7 -4.2 6 -7.1 l5.4 -3.5 0.7 -10.8 c0.7 -10.9 2.7 -18.3 4.9 -18.3 0.7 0 1.7 -0.5 2.4 -1.2 0.9 -0.9 0.4 -2 -2.3 -4.8 -1.9 -1.9 -3.4 -3.8 -3.4 -4.3 0 -0.4 -0.4 -2.3 -1 -4.2 -1.2 -4.4 -0.4 -7.5 1.9 -7.5 1.4 0 1.9 1.2 2.5 5.8 0.5 4.6 1.1 6 2.8 6.7 1.8 0.8 2.3 2 2.5 6.4 0.3 4.3 0 5.6 -1.6 6.7 -2.8 2 -4 5.7 -5.1 17.2 -0.6 5.6 -1.1 10.7 -1.1 11.2 0 0.5 -2.5 2.5 -5.5 4.5 -3 1.9 -5.5 3.9 -5.5 4.4 0 4.4 3 5 12 2.5 6.7 -1.8 7.5 -3.3 8.5 -15.6 0.7 -6.9 1 -7.8 2.8 -7.8 1.8 0 1.9 0.4 1.3 6.3 -1.5 15.7 -3.4 19.2 -11 20.9 -2.2 0.5 -4.8 1.1 -5.6 1.3 -4.6 1.2 -5.7 1.3 -8 0.6z"/>
  <path d="M95.5 164.5 c-7.8 -2.1 -10.3 -3.3 -11.3 -5.2 -1.5 -2.8 -2.4 -9.9 -2.5 -21.4 -0.2 -9.7 -0.3 -10.5 -2.5 -11.4 -1.2 -0.5 -2.2 -1.4 -2.2 -2 0 -0.6 -1 -1.5 -2.2 -2 -3.1 -1.4 -3.4 -5.7 -0.4 -5.3 1.1 0.2 2.5 1.3 3.1 2.5 0.5 1.2 2.1 2.4 3.6 2.7 3 0.6 3.9 3.7 3.9 13.6 0.1 9.1 1.8 18.8 3.8 20.8 0.9 0.9 4.6 2.6 8.1 3.7 l6.4 1.9 1.8 -2.3 c2.4 -2.9 0.9 -5.5 -4.1 -7.5 -2 -0.8 -4.2 -2.1 -4.9 -3 -0.7 -0.8 -1.7 -6.3 -2.2 -12.3 -0.5 -5.9 -1.4 -11.6 -1.9 -12.5 -0.6 -1 -1 -2.5 -1 -3.3 0 -0.8 -0.9 -1.5 -2 -1.5 -1.7 0 -2 -0.7 -2 -4.9 0 -3.9 0.5 -5.6 2.5 -7.6 2.4 -2.7 2.8 -4.3 4 -17.3 0.8 -7.8 2 -11.2 3.9 -11.2 2.6 0 8.4 -6 7.9 -8.1 -0.6 -2.2 -3.3 -2.4 -9.8 -0.7 -5.7 1.5 -8.5 4.5 -9.2 9.7 -0.4 3.2 -1 4.1 -2.6 4.1 -1.8 0 -1.9 -0.5 -1.5 -5.1 0.6 -5.9 3.2 -9.9 7.4 -11.2 1.6 -0.6 3.1 -1.3 3.4 -1.7 0.3 -0.4 2.9 -1 5.7 -1.3 4.9 -0.6 5.5 -0.4 8.3 2.4 4.1 4.1 4.1 8.4 0 10.7 -1.6 0.9 -3 2 -3 2.5 0 0.4 -0.9 0.7 -2 0.7 -1.5 0 -2 0.7 -2 2.9 0 1.8 -0.8 3.4 -2 4.2 -1.8 1.2 -2 1.9 -1.1 6.2 1 5.5 -0.9 14.2 -3.8 16.7 -3.3 2.9 -3.3 5 -0.1 8 3 2.8 3.3 4.1 4.5 16 0.9 9.5 1.7 11.2 6.7 13.8 5.2 2.7 7.4 6.5 6.3 10.9 -1.5 6.3 -5.2 7.5 -15 4.8z"/>
  <path d="M35.6 158.8 c-1 -3.9 -0.7 -11.5 0.4 -9.8 0.8 1.3 1 1.2 1 -0.3 0 -1 0.5 -1.5 1 -1.2 0.6 0.3 1 3.5 1 7.1 0 4.8 -0.3 6.4 -1.4 6.4 -0.7 0 -1.6 -1 -2 -2.2z"/>
  <path d="M228 137.8 c0 -11.2 0.5 -12.8 4.1 -12.8 1.6 0 2.9 0.5 2.9 1 0 0.6 -0.4 1 -0.9 1 -1.4 0 -2.4 4 -2.2 9 0.2 6.1 -0.8 10 -2.5 10 -1.1 0 -1.4 -1.8 -1.4 -8.2z"/>
  <path d="M128.3 142.5 c-8.2 -2.6 -17.5 -11.2 -18.7 -17.5 -2.6 -12.7 -1.8 -15.9 5.8 -23.7 3.8 -4 6.7 -6 12.1 -8 3.8 -1.5 7.5 -2.6 8 -2.4 1.1 0.3 3.9 1 7.4 1.7 4.5 0.9 9.1 3.3 9.1 4.7 0 0.7 1.3 2.3 2.9 3.5 7.8 5.8 10.4 18.1 5.7 27.8 -2.2 4.4 -8.6 11.4 -11.1 12 -3.7 1 -5.4 1.4 -8.5 2.3 -4.4 1.4 -7.4 1.3 -12.7 -0.4z m13.4 -8.2 c8.6 -4.9 13.9 -12.6 12.7 -18.8 -1.4 -7.4 -12.8 -17.5 -19.8 -17.5 -1.4 0 -2.7 0.4 -3 0.9 -0.3 0.5 -2 1.2 -3.8 1.5 -2.3 0.4 -4.4 2 -7 5.2 -4.8 5.9 -5.6 10.2 -3.3 17.1 1.5 4.4 2.7 6 6.4 8.5 4.1 2.8 8.4 4.3 13.1 4.7 0.8 0 2.9 -0.7 4.7 -1.6z"/>
  <path d="M215.8 140.3 c-0.6 -2.8 0.2 -5.3 1.8 -5.3 0.9 0 1.4 1.1 1.4 3.5 0 3.7 -2.4 5 -3.2 1.8z"/>
  <path d="M184 130.6 c0 -6.2 0.7 -7.5 4.5 -8.2 2.8 -0.5 3.4 -1.1 3.8 -3.9 0.6 -3.9 -0.1 -7.5 -1.5 -7.5 -0.5 0 -1.6 -0.6 -2.4 -1.4 -0.7 -0.8 -1.9 -1.6 -2.5 -1.8 -0.6 -0.2 -1.5 -4.1 -1.9 -8.9 -0.4 -4.7 -1.4 -12.1 -2.1 -16.3 l-1.2 -7.9 -4.3 -1.8 c-8.3 -3.7 -13.4 -3.4 -13.4 0.9 0 1.6 3.7 5.2 5.4 5.2 0.6 0 2.1 1.2 3.3 2.7 1.7 1.9 2.3 3.9 2.3 7.5 0 6.6 -2.4 6.5 -4 -0.1 -1 -4.4 -1.6 -5.1 -5.1 -6.5 -3 -1.2 -4.4 -2.6 -5.6 -5.4 -1.4 -3.4 -1.4 -3.9 0.3 -7.1 2.9 -5.3 7.2 -5.8 17.4 -1.9 6.8 2.6 7.2 3.1 8.6 11.1 0.7 4.3 1.6 11.6 2 16.3 0.6 7 1 8.8 2.4 9.1 1 0.3 2.3 1.6 2.9 2.9 0.6 1.3 1.7 2.4 2.6 2.4 1.1 0 1.4 1.2 1.4 5 -0.1 4 -0.6 5.2 -2.5 6.5 -1.3 0.8 -2.4 2.2 -2.4 2.9 0 0.8 -0.8 1.6 -1.9 1.9 -1.2 0.3 -2 1.7 -2.5 4.6 -0.9 5.9 -3.6 5.7 -3.6 -0.3z"/>
  <path d="M215.6 130.5 c-0.8 -3.3 0.3 -7.5 2 -7.5 1 0 1.4 1.4 1.4 5 0 5.5 -2.3 7.1 -3.4 2.5z"/>
  <path d="M37.1 128.4 c-0.1 -1 -2.5 -2.3 -5.6 -2.9 -2.3 -0.5 -4.5 -1.8 -4.5 -2.7 0 -1 9.7 -0.5 10.7 0.6 0.3 0.2 0.3 1.7 0 3.3 -0.2 1.5 -0.5 2.3 -0.6 1.7z"/>
  <path d="M240 124 c0 -1.4 0.7 -2 2.4 -2 1.9 0 2.3 0.4 1.9 2 -0.3 1.1 -1.4 2 -2.4 2 -1.2 0 -1.9 -0.7 -1.9 -2z"/>
  <path d="M216 121.3 c0 -1.7 1.9 -3.5 2.9 -2.9 0.6 0.4 1.1 0.2 1.1 -0.4 0 -0.6 0.4 -0.9 0.9 -0.5 0.5 0.3 1.2 0.1 1.6 -0.5 0.4 -0.6 1 -0.8 1.5 -0.5 1.9 1.1 3.1 -2.6 2.8 -8.7 -0.3 -6.3 -0.3 -6.3 -3.5 -6.6 -4.3 -0.4 -8.3 -4.3 -8.3 -8.2 0 -2.3 0.4 -3 1.9 -3 1.2 0 2.1 0.8 2.3 2.1 0.3 2.1 3.1 4 8.3 5.6 l3 0.8 0 9.9 0 9.8 -5 1.9 c-5.1 1.9 -9.5 2.5 -9.5 1.2z"/>
  <path d="M243 117 c0 -4.3 2.3 -5.7 3.3 -2 0.7 2.8 -0.3 6 -1.9 6 -1 0 -1.4 -1.3 -1.4 -4z"/>
  <path d="M39.8 118.3 c-1.9 -0.5 -2.6 -6.3 -0.8 -6.3 0.6 0 1 0.5 1 1 0 0.6 1.1 0.8 2.5 0.4 1.9 -0.5 2.5 -0.2 2.5 1 0 0.9 0.7 1.9 1.5 2.2 4.3 1.7 -1.4 3.1 -6.7 1.7z"/>
  <path d="M74.7 108.8 c0.4 -0.7 0.8 -1.7 0.8 -2.3 0 -0.5 0.7 -1 1.5 -1 0.8 0 2.2 -0.8 3.1 -1.7 2.3 -2.5 2.9 -2.2 2.9 1 0 2.8 -3.3 5.2 -7.3 5.2 -1.2 0 -1.6 -0.4 -1 -1.2z"/>
  <path d="M243 100.3 c0 -5.9 -0.9 -6.9 -7.3 -8.9 l-6.2 -2 -0.3 -22.7 c-0.2 -22.2 -0.3 -22.7 -2.5 -24 -1.2 -0.8 -8.3 -2.4 -15.7 -3.6 -23.6 -3.8 -26.4 -4.3 -31.3 -5.2 -8.8 -1.7 -9.7 -1.4 -9.7 2.9 0 5.1 0.7 5.8 6.8 6.6 3 0.4 6.1 1.1 7 1.6 1 0.4 5.1 1.4 9.2 2 4.1 0.6 10.4 1.8 14 2.6 3.6 0.8 7.4 1.4 8.6 1.4 1.8 0 2.2 0.8 2.8 5.3 0.9 8 0.8 8.7 -1.4 8.7 -1.7 0 -2 -0.7 -2 -4.8 l0 -4.8 -5.7 -1.3 c-3.2 -0.6 -11.3 -2 -18.1 -3 -6.8 -1 -12.8 -2.3 -13.5 -3 -0.6 -0.6 -2.5 -1.1 -4.3 -1.1 -4.7 0 -6.4 -0.9 -6.4 -3.5 0 -1.3 -0.5 -2.5 -1.1 -2.7 -0.5 -0.2 -1.3 -2.2 -1.6 -4.4 -0.5 -3.6 -0.2 -4.2 2.2 -5.8 2.1 -1.4 4 -1.7 7.9 -1.3 8.9 1 18.9 2.5 24.1 3.6 2.8 0.5 8.6 1.5 13 2.2 23.6 3.4 21.7 1.1 21.5 26.4 -0.3 26.5 -0.7 24 4 25.4 2.2 0.6 5.4 2.4 7.1 4 2.7 2.5 3 3.3 2.5 6.7 -0.3 2.2 -0.5 4.2 -0.6 4.7 0 0.4 -0.7 0.7 -1.5 0.7 -1 0 -1.5 -1 -1.5 -2.7z"/>
  <path d="M80.6 98.6 c-0.3 -1.3 -0.1 -4.8 0.4 -7.6 0.6 -2.9 1 -5.4 1 -5.6 0 -0.2 0.7 -0.4 1.5 -0.4 1.6 0 2 5.3 0.9 12.3 -0.7 4.2 -2.9 4.9 -3.8 1.3z"/>
 </g>
 <g fill="#111443">
  <path d="M133.2 209.4 c-1.6 -1.1 -1.9 -2.2 -1.5 -6.1 0.3 -2.7 1.1 -5.3 1.9 -5.9 0.8 -0.6 1.1 -1.4 0.7 -1.7 -0.3 -0.4 -0.1 -0.7 0.5 -0.7 1.8 0 1.4 3.8 -0.5 4.9 -1.7 1 -1.7 1.2 -0.1 2.4 0.9 0.7 1.6 2.2 1.5 3.2 -0.1 1.1 0.5 2.1 1.6 2.3 1 0.2 1.7 -0.3 1.7 -1.1 0 -1.9 6.2 -3.5 6.8 -1.8 0.2 0.6 1.1 1.1 2 1.1 2.2 0.1 -4.2 2.9 -9 3.9 -2.6 0.6 -4.2 0.5 -5.6 -0.5z"/>
  <path d="M155 203.1 c0 -1.1 0.2 -2.1 0.4 -2.1 0.2 0 5.5 -1.3 11.7 -3 12.6 -3.3 16.9 -3.7 16.9 -1.7 0 0.8 -2.4 2 -5.7 3 -3.2 0.9 -8.5 2.3 -11.8 3.2 -10.5 3 -11.5 3 -11.5 0.6z"/>
  <path d="M103.8 198.2 c-0.1 -0.4 -5.7 -1.8 -12.3 -3.1 -6.6 -1.2 -13.7 -2.7 -15.7 -3.3 -4.4 -1.3 -5.1 -3.8 -1.1 -3.8 4 0 27.7 5.2 28.1 6.2 0.2 0.4 1.2 0.8 2.3 0.8 1.6 0 1.9 -0.7 1.9 -5.3 l0 -5.3 -12 -2.4 c-10.2 -1.9 -12 -2.6 -12 -4.1 0 -1.1 0.6 -1.9 1.3 -1.9 2.1 0 23.1 4.2 24.7 5 1 0.5 1.6 2.6 1.8 7.1 0.4 9 -0.2 10.9 -3.7 10.9 -1.6 0 -3.1 -0.4 -3.3 -0.8z"/>
  <path d="M185 195.4 c0 -1.6 2.7 -2.6 19.3 -6.7 10.5 -2.6 20.2 -4.7 21.5 -4.7 1.9 0 2.2 -0.5 2.2 -3.5 0 -3.8 2.4 -5 3.3 -1.6 0.4 1.7 -2.7 7.9 -4.1 8.2 -0.4 0.1 -1.6 0.3 -2.7 0.5 -1.1 0.1 -8.7 2.1 -17 4.4 -20 5.4 -22.5 5.8 -22.5 3.4z"/>
  <path d="M133 192.2 c0 -1.9 8.8 -4.4 38.7 -11.1 11.1 -2.5 11.3 -2.5 11.3 -0.3 0 1.3 -1.4 2.1 -5.7 3 -3.2 0.7 -14.1 3.3 -24.2 5.8 -10.1 2.4 -18.7 4.4 -19.2 4.4 -0.5 0 -0.9 -0.8 -0.9 -1.8z"/>
  <path d="M60.9 188.5 c-5.3 -1.4 -6.9 -2.2 -6.9 -3.6 0 -1.2 3.4 -1.1 10.3 0.2 4.5 0.9 5.7 1.6 5.7 3 0 2.2 -2.3 2.3 -9.1 0.4z"/>
  <path d="M41.8 184.3 c-3.6 -0.9 -2 -3.3 2.2 -3.3 3.3 0 4 0.3 4 2 0 2 -2 2.4 -6.2 1.3z"/>
  <path d="M188 178.6 c0 -0.8 1.9 -1.8 4.4 -2.5 6 -1.5 6.6 -1.4 6.6 0.8 0 1.3 -1 2 -3.1 2.5 -5.1 1 -7.9 0.7 -7.9 -0.8z"/>
  <path d="M74 176 c0 -2.1 1 -2.4 4.8 -1.4 3.6 1 2.7 3.4 -1.3 3.4 -2.8 0 -3.5 -0.4 -3.5 -2z"/>
  <path d="M209 173.9 c0 -0.6 1.4 -1.6 3 -2.2 1.8 -0.7 3.3 -2.1 3.6 -3.4 1 -3.7 3.4 -2.8 3.4 1.2 0 2.4 -0.5 3.5 -1.5 3.5 -0.8 0 -1.5 0.5 -1.5 1 0 0.6 -1.6 1 -3.5 1 -1.9 0 -3.5 -0.5 -3.5 -1.1z"/>
  <path d="M48 168.5 c0 -2.4 0.5 -3.5 1.5 -3.5 0.8 0 1.5 0.7 1.5 1.5 0 0.8 0.9 2 2 2.7 2.9 1.9 2.4 2.8 -1.5 2.8 -3.3 0 -3.5 -0.2 -3.5 -3.5z"/>
  <path d="M160.6 165.4 c-1 -0.9 -1.6 -3.3 -1.6 -6 0 -4.3 0.2 -4.5 5.5 -7.9 3 -2 5.5 -4 5.5 -4.6 0 -2.1 2.1 -20.5 2.5 -22.7 0.3 -1.2 2.1 -3.9 4 -5.9 l3.5 -3.7 0 3.2 c0 1.8 -1 4.6 -2.1 6.2 -1.7 2.2 -2.4 5.1 -3 12.7 -1.4 15.6 -1.4 15.5 -6 17.8 -5.4 2.6 -6.9 4.9 -4.7 7.1 1.6 1.6 2.1 1.5 8.7 -0.6 6.2 -1.9 7.1 -2.6 7.6 -5.1 0.8 -3.8 4.5 -4.1 4.5 -0.5 0 4.6 -4.4 8.3 -12 10 -8.6 2 -10.5 2 -12.4 0z"/>
  <path d="M101.5 165.5 c-0.5 -0.1 -3.9 -1.1 -7.5 -2.1 -3.5 -1 -7.3 -2.7 -8.2 -3.6 -1.1 -1.1 -2.2 -4.5 -2.8 -8.6 -1.5 -10.1 -1.3 -12.2 0.9 -12.2 1.6 0 1.9 1.1 2.4 7.6 0.7 9.1 1.9 10.6 10.6 13.3 5.9 1.8 6 1.8 7.7 0 1.4 -1.6 1.5 -2.1 0.3 -3.5 -0.8 -1 -3.3 -2.6 -5.5 -3.6 -4.7 -2 -5 -2.7 -5.9 -13.8 -0.9 -11.9 -2.5 -18 -4.7 -18 -1.5 0 -1.8 -0.8 -1.8 -6 0 -4.3 0.4 -6 1.3 -6 1.3 0 3.7 -5.3 3.7 -8.3 0 -1 0.8 -1.7 2 -1.7 1.2 0 2 0.7 2 1.8 0 3.3 -1.8 8 -3.9 10.1 -2.8 2.8 -2.6 4.9 0.8 8.6 2.6 2.8 3 3.9 3.9 14.3 0.6 6.2 1.6 12 2.3 12.8 0.7 0.8 2.8 2.2 4.7 3 4.4 1.8 6.1 4.1 6.2 8 0 5.3 -4.2 9.2 -8.5 7.9z"/>
  <path d="M182.3 145.3 c0.4 -3.8 0.7 -8.3 0.7 -10 0 -2.7 0.4 -3.3 2.1 -3.3 2.1 0 2.2 0.3 1.5 7.8 -0.9 10.1 -1.5 12.2 -3.4 12.2 -1.2 0 -1.4 -1.1 -0.9 -6.7z"/>
  <path d="M133 139.5 c-0.7 -0.8 -2.4 -1.5 -3.8 -1.5 -1.4 0 -4.8 -1.5 -7.6 -3.4 -4.6 -3 -5.4 -4.2 -7.6 -10.3 -1.3 -3.7 -2.3 -7.2 -2.1 -7.8 0.2 -0.5 0.9 -3.1 1.5 -5.6 1.5 -5.7 7.1 -12.6 10.9 -13.5 1.6 -0.3 4 -1.2 5.5 -2 3.8 -2 7 -1.7 12.7 1 4.5 2.1 6.4 3.6 11.8 9.4 3.8 4.1 4.8 13.7 2.1 19.9 -2.3 5.1 -10.8 12.2 -15.7 13 -2 0.3 -4 1 -4.3 1.4 -0.8 1.3 -2 1.1 -3.4 -0.6z m5.5 -7.5 c4.7 -1.8 10.5 -7.2 11.4 -10.7 2.3 -8.3 -5.5 -19.3 -13.7 -19.3 -4 0 -11 3.1 -13.7 6 -2.3 2.6 -4.3 8.6 -3.7 11.6 0.6 3.5 7.6 10 12.5 11.8 2.3 0.8 4.3 1.5 4.4 1.5 0.1 0.1 1.3 -0.3 2.8 -0.9z"/>
  <path d="M228 129.5 c0 -4.5 0 -4.5 3.5 -4.5 3.5 0 4.7 1.3 2.1 2.3 -0.8 0.3 -1.7 1.9 -2.1 3.6 -1.1 4.9 -3.5 3.9 -3.5 -1.4z"/>
  <path d="M184 127.5 c0 -2.3 0.5 -3.5 1.4 -3.5 0.8 0 1.6 -0.7 2 -1.5 0.3 -0.9 1.8 -1.5 3.6 -1.5 3 0 3 0 1.4 2.5 -0.9 1.4 -2.2 2.5 -3 2.5 -0.7 0 -1.6 1.1 -2 2.5 -1 3.9 -3.4 3.1 -3.4 -1z"/>
  <path d="M80.8 127.3 c-0.9 -1 -3.1 -3 -5 -4.5 -3.8 -3 -4.8 -6.8 -1.7 -6.8 1.4 0 1.9 0.7 1.9 2.5 0 1.9 0.5 2.5 2.3 2.5 3.6 0 4.9 1.4 4.5 4.9 -0.3 3 -0.4 3.1 -2 1.4z"/>
  <path d="M238 124 c0 -1.6 0.7 -2 3.5 -2 3.3 0 3.5 0.2 2.5 2 -0.6 1.2 -2.1 2 -3.5 2 -1.8 0 -2.5 -0.5 -2.5 -2z"/>
  <path d="M175.5 111.4 c-2.3 -1.7 -4 -8.5 -4.4 -17.5 -0.3 -7.1 -1.9 -10.5 -5.8 -12 -6 -2.3 -8.1 -8.5 -4.4 -13 2.5 -3.1 8.4 -3.1 16.6 0.2 4.6 1.8 6.1 2.9 6.3 4.7 0.4 2.7 -2.2 3 -5.7 0.6 -1.2 -0.9 -4.4 -2.2 -7.1 -2.9 -4.4 -1.2 -5 -1.1 -6.5 0.5 -2.2 2.5 -1 4.5 3.6 6 2.2 0.8 4.4 2.1 4.9 3.1 0.5 0.9 1.2 5.4 1.5 10 0.4 4.6 1.3 10.7 2.2 13.5 0.8 2.8 1.3 5.9 1.1 6.7 -0.3 1.4 -0.5 1.4 -2.3 0.1z"/>
  <path d="M75.6 107.5 c0.9 -1.4 1.9 -2.3 2.2 -2 0.3 0.2 1.2 -0.1 1.9 -0.7 1.2 -1 1.4 -0.7 1.1 1.8 -0.3 2.5 -0.8 2.9 -3.6 3.2 l-3.3 0.3 1.7 -2.6z"/>
  <path d="M185.8 108.8 c-1.1 -0.9 -1.9 -4.6 -2.7 -12.9 -1.4 -14.7 -1.4 -15.9 0.3 -15.9 1.7 0 2.3 2.4 3.1 11.5 1 11.3 1.5 13.4 3.3 13.9 0.9 0.3 2.3 1.5 3 2.6 1.1 1.9 1 2 -2.1 2 -1.8 0 -4 -0.6 -4.9 -1.2z"/>
  <path d="M227.7 103 c-0.3 -1.1 -1.7 -2.2 -3.3 -2.5 -4.8 -1 -7.8 -3.2 -8.6 -6.2 -0.5 -1.5 -0.8 -9.5 -0.8 -17.8 0.1 -24.3 0.3 -22.5 -2.2 -22.5 -1.3 0 -5.2 -0.6 -8.8 -1.4 -3.6 -0.8 -9.9 -2 -14 -2.6 -4.1 -0.6 -8.2 -1.6 -9.2 -2 -0.9 -0.5 -4 -1.2 -7 -1.6 -4.8 -0.6 -6.7 -1.7 -6.8 -3.6 0 -1.7 8.8 -0.3 46.3 7.3 l5.7 1.2 0 20.7 c0 15.5 0.3 21 1.3 21.8 0.7 0.6 3.4 1.6 6 2.2 4.6 1.2 4.7 1.3 4.7 5.1 0 4.2 -2.3 5.6 -3.3 1.9z"/>
  <path d="M81 96.3 c0 -3.4 1.2 -6.3 2.6 -6.3 1 0 1.4 1.3 1.4 4 0 3.3 -0.3 4 -2 4 -1.2 0 -2 -0.7 -2 -1.7z"/>
  <path d="M234 91.6 c-6.3 -2 -6 -0.9 -6 -24.6 l0 -21.9 -2.6 -2 c-1.5 -1.2 -3.4 -2.1 -4.3 -2.1 -0.9 0.1 -13.4 -1.9 -27.9 -4.2 -21.3 -3.5 -26.2 -4.6 -25.9 -5.8 0.4 -2.1 5.7 -1.7 27.7 2 3 0.5 11.6 1.9 19 3.1 7.4 1.2 14.5 2.8 15.7 3.6 2.2 1.3 2.3 1.8 2.5 24 l0.3 22.6 5.7 1.9 c6.9 2.3 8.5 4.9 3 4.7 -2 -0.1 -5.3 -0.6 -7.2 -1.3z"/>
  <path d="M94.2 83.8 l0.3 -5.3 4.7 -1.5 c3.9 -1.2 4.9 -2 5.4 -4.3 0.3 -1.6 0.3 -3.1 0 -3.4 -0.3 -0.3 -3.2 0 -6.5 0.7 -8.1 1.7 -11.3 5 -11.9 12.5 -0.4 4.5 -0.8 5.5 -2.3 5.5 -2.2 0 -2.4 -2.1 -0.9 -10.1 1.4 -7.3 3.6 -9.3 12.6 -11.4 7.4 -1.7 7.6 -1.7 10.2 0.2 1.9 1.4 2.8 3.1 3 5.5 0.3 3.1 -0.2 3.9 -3 5.9 -1.8 1.3 -4.2 2.9 -5.2 3.4 -1.1 0.6 -2.5 2.5 -3 4.3 -1.5 5.4 -3.8 4.1 -3.4 -2z"/>
 </g>
 <g fill="#141755">
  <path d="M133 208 c0 -2.1 1.5 -2.7 2.5 -1 1.1 1.7 3.5 1.1 3.5 -0.9 0 -1.3 1 -2 3.1 -2.5 4.4 -0.8 5.1 -0.8 4.3 0.5 -0.3 0.6 -0.1 1.5 0.6 1.9 0.7 0.4 -1.6 1.4 -5.4 2.4 -8.2 2 -8.6 2 -8.6 -0.4z"/>
  <path d="M155 202.9 c0 -2.3 1.4 -2.7 35.8 -11.2 19.6 -4.8 36.5 -8.7 37.5 -8.7 3.6 0 1.1 3.3 -3.3 4.2 -4.1 0.9 -66.9 16.8 -68.5 17.4 -1.1 0.4 -1.5 -0.1 -1.5 -1.7z"/>
  <path d="M133 198.4 c0 -0.8 0.4 -1.4 1 -1.4 0.6 0 0.5 -1 -0.2 -2.5 -0.7 -1.6 -0.8 -2.9 -0.2 -3.4 0.5 -0.5 7.9 -2.5 16.4 -4.5 8.5 -2.1 23.6 -5.7 33.5 -8 9.9 -2.4 19.8 -4.7 22 -5.1 5.9 -1 10.5 -3.2 10.5 -4.9 0 -0.9 0.7 -1.6 1.5 -1.6 2.2 0 2 6.6 -0.1 7.4 -0.9 0.4 -17.7 4.5 -37.3 9.2 -47.5 11.3 -43.1 10 -43.1 13.2 0 2.1 -0.5 2.8 -2 2.9 -1.1 0.1 -2 -0.4 -2 -1.3z"/>
  <path d="M85 193.4 c-10.7 -2.4 -21.9 -4.8 -24.7 -5.4 -3.4 -0.7 -5.3 -1.7 -5.3 -2.6 0 -2.2 4.7 -1.7 29 3.5 20.9 4.4 22.5 4.6 22.8 2.9 0.4 -2.4 2.8 -2.3 3.5 0.2 0.9 3.7 -0.3 6 -3.2 5.9 -1.4 -0.1 -11.4 -2.1 -22.1 -4.5z"/>
  <path d="M45.3 184.6 c-9.1 -1.9 -9.3 -2.4 -9.3 -18.8 0 -15.5 0.5 -18.8 2.6 -18.8 1.1 0 1.4 2.9 1.4 15.3 0 8.3 0.4 15.7 0.8 16.4 0.4 0.6 3.5 1.7 7 2.4 4.8 1 6.2 1.7 6.2 3.1 0 2 -1.1 2.1 -8.7 0.4z"/>
  <path d="M92 181.9 c-6.9 -1.5 -15.3 -3.3 -18.7 -4 -5.1 -1 -6.3 -1.6 -6.3 -3.2 0 -2.2 2.1 -2 16.5 1.3 4.4 1 12.2 2.6 17.3 3.6 7.5 1.5 9.2 2.2 9.2 3.6 0 2.4 -2.6 2.2 -18 -1.3z"/>
  <path d="M58 173 c0 -2.1 1.6 -2.5 5.8 -1.4 3.9 1.1 2.7 3.4 -1.8 3.4 -3.3 0 -4 -0.3 -4 -2z"/>
  <path d="M49 169.5 c0 -1.9 0.5 -3.5 1 -3.5 0.6 0 1 0.7 1 1.5 0 0.8 1.1 1.7 2.5 2.1 3.9 1 3.1 3.4 -1 3.4 -3.3 0 -3.5 -0.2 -3.5 -3.5z"/>
  <path d="M161.6 164.9 c-5 -3.9 -2.2 -11.4 5.3 -14 3.3 -1.2 3.7 -2.3 4.6 -13.4 0.9 -12.4 1.3 -14 4.5 -18.1 2.8 -3.4 2.9 -3.9 1.5 -5.8 -0.8 -1.2 -2.2 -3.1 -3.1 -4.3 -1 -1.4 -1.9 -6.2 -2.6 -13 -0.5 -5.9 -1.3 -11.3 -1.7 -12 -0.4 -0.7 -2.7 -2.3 -5.1 -3.6 -5.5 -2.7 -7 -6.8 -4.1 -10.7 1.5 -2 2.7 -2.5 6.2 -2.4 5.6 0.1 11.7 1.9 14.7 4.2 2.2 1.7 2.5 3.3 4 17.6 1.4 14 1.8 15.9 3.6 16.8 5.9 3 8.9 8.8 4.6 8.8 -1.3 0 -2 -0.7 -2 -1.9 0 -1.2 -0.9 -2.1 -2.7 -2.4 -5.1 -1.1 -5.3 -1.7 -6.9 -17.2 -0.8 -8.1 -1.9 -15.5 -2.4 -16.5 -1.2 -2.2 -6.5 -4.7 -11.8 -5.6 -3.8 -0.6 -4.2 -0.5 -4.2 1.4 0 2.3 3 4.7 7.2 5.7 3 0.8 3.3 1.8 4.4 16.9 0.6 7.8 1 9.2 3.5 12.1 2.4 2.7 2.9 4.2 2.9 8.3 0 3.8 -0.5 5.4 -1.8 6.4 -2.9 2 -3.9 4.7 -4.6 12.8 -1.6 18.7 -1.4 18 -6 20 -5.4 2.3 -7.2 4.3 -5.1 6 1.2 1 2.5 1 6.7 0 7.5 -1.8 9.5 -4.3 10.3 -12.6 1.6 -17.7 2.7 -24.9 3.8 -25.6 0.7 -0.4 2.4 -0.8 4 -0.8 2.3 0 2.7 -0.4 2.7 -3 0 -2.3 0.4 -3 2 -3 3.4 0 2.3 3.6 -2.4 7.7 l-4.4 3.9 -1.2 13.4 c-1.8 20.7 -2.1 21.1 -14.7 24.4 -7.5 2 -6.5 2 -9.7 -0.5z"/>
  <path d="M93.8 162.9 c-8.8 -2.8 -9.6 -4 -10.8 -15 -1.4 -13.6 -1.3 -14.9 0.9 -14.9 1.6 0 1.9 1.2 2.5 9.6 1 13.1 1.5 14 9.5 16.4 5.7 1.7 6.8 1.8 8 0.5 1.9 -1.9 0 -4.2 -5.5 -6.6 -4.6 -1.9 -4.5 -1.5 -6 -18.9 -0.4 -5.2 -1.2 -8.5 -2.7 -10.7 -1.2 -1.8 -2.5 -3.3 -2.9 -3.3 -0.5 0 -0.8 -2.5 -0.8 -5.6 0 -4.6 0.3 -5.7 1.8 -6.1 2.3 -0.6 4.2 -5.6 4.2 -11.1 0 -3.5 0.3 -4.2 2 -4.2 1.6 0 2 0.7 2 3.8 -0.1 5.7 -1.6 11.2 -3.9 13.6 -2.1 2.3 -2.9 7.6 -1.1 7.6 2.3 0 4.3 5.5 5.1 14.3 1.3 15 1.5 15.5 5.7 17.2 5.5 2.4 7.2 4.3 7.2 8.5 0 7 -4.5 8.4 -15.2 4.9z"/>
  <path d="M128.3 134.4 c-6.2 -2.2 -12 -8.5 -12.8 -13.8 -1.9 -12.7 6.6 -21.6 20.7 -21.6 5.9 0 7 0.3 10.7 3.3 2.9 2.3 4.5 4.6 5.6 8.1 2.8 9.2 1.4 15.7 -4.4 20.4 -6.9 5.5 -11.8 6.4 -19.8 3.6z m10 -13.4 c4 -3.2 4.3 -5.7 1.1 -9.1 -3.4 -3.6 -5.4 -3.6 -8.8 -0.3 -3.3 3.4 -3.3 5.4 0 8.8 3.2 3.1 4.3 3.2 7.7 0.6z"/>
  <path d="M81.6 128.6 c-0.3 -1.3 -2.3 -3.5 -4.4 -4.9 -4.8 -3.1 -6.2 -6.7 -2.6 -6.7 1.3 0 2.9 0.9 3.6 2 0.7 1.1 1.8 2 2.5 2 2.2 0 4.3 3.2 4.3 6.6 0 4 -2.4 4.8 -3.4 1z"/>
  <path d="M37 128.2 c0 -0.5 -1.1 -1.4 -2.5 -2 -3.6 -1.6 -3.1 -3.2 1 -3.2 3.2 0 3.5 0.2 3.5 3 0 1.7 -0.4 3 -1 3 -0.5 0 -1 -0.4 -1 -0.8z"/>
  <path d="M237 124.1 c0 -1.2 0.9 -2.1 2.5 -2.5 l2.5 -0.6 0 -13.5 c0 -13.2 -0.1 -13.5 -2.2 -13.9 -1.3 -0.3 -4.7 -1 -7.5 -1.6 l-5.3 -1.2 0 -20.9 c0 -20.2 0.1 -20.9 2 -20.9 1.9 0 2 0.7 2 18.4 0 13.5 0.3 18.6 1.3 19.3 0.6 0.6 3.5 1.6 6.2 2.3 2.8 0.8 5.5 2.1 6.2 2.9 1.6 2.1 1.7 27 0.2 30.5 -1.7 3.7 -7.9 5 -7.9 1.7z"/>
  <path d="M216.2 121.9 c0.2 -1.5 1.9 -2.7 5.8 -4.3 l5.5 -2.2 0.3 -7.6 0.3 -7.5 -4.8 -1.2 c-5.8 -1.5 -7.3 -2.6 -7.3 -5.7 0 -1.7 0.6 -2.4 2 -2.4 1.1 0 2 0.4 2 0.9 0 1.1 7.3 4.1 10 4.1 1.9 0 2 0.7 2 11.1 l0 11 -3.5 1.5 c-1.9 0.7 -4.3 1.4 -5.4 1.4 -1 0 -2.1 0.7 -2.5 1.5 -0.3 0.8 -1.5 1.5 -2.6 1.5 -1.6 0 -2.1 -0.5 -1.8 -2.1z"/>
  <path d="M47 120 c0 -2.8 0.2 -3 2 -2 1.1 0.6 2 2 2 3 0 1.3 -0.7 2 -2 2 -1.6 0 -2 -0.7 -2 -3z"/>
  <path d="M77 107.4 c0 -0.4 0.8 -1.3 1.8 -2 1.3 -1 2 -4.3 3.3 -16.4 1.5 -14.5 1.7 -15.3 4.5 -18 3.8 -3.7 14.7 -6.5 18.4 -4.7 1.3 0.7 2.9 2.4 3.4 3.9 1.4 4 -0.8 7.3 -6.5 9.7 -4.2 1.7 -4.9 2.4 -4.9 4.8 0 4.3 -1.1 7.3 -2.6 7.3 -1.5 0 -1.8 -3.9 -0.8 -10.1 0.6 -3.3 1.2 -3.8 6 -5.9 5.7 -2.3 6.3 -3 3.9 -5 -1.1 -0.9 -2.9 -0.9 -8.4 0.1 l-6.9 1.3 -0.7 4 c-0.7 4.4 -3.4 28.3 -3.5 30.4 0 0.7 -1.4 1.2 -3.5 1.2 -1.9 0 -3.5 -0.3 -3.5 -0.6z"/>
  <path d="M216 55.6 c0 -1.4 0.2 -1.4 -29.4 -7.1 -9.8 -2 -18.3 -3.8 -18.7 -4.1 -0.5 -0.3 -0.9 -3.6 -0.9 -7.5 l0 -6.9 3.4 0 c1.8 0 14 1.8 27.1 4 13.1 2.2 24.8 4 26 4 1.2 0 3.4 0.9 4.9 2.1 3.1 2.5 3.5 5.9 0.6 5.9 -1.1 0 -2 -0.6 -2 -1.4 0 -0.8 -1.2 -1.7 -2.7 -2 -2.5 -0.6 -52.1 -8.6 -52.9 -8.6 -0.2 0 -0.4 1.5 -0.4 3.4 0 2.4 0.5 3.6 1.8 4 2.1 0.6 44 8.6 45.3 8.6 0.5 0 0.9 1.6 0.9 3.5 0 2.4 -0.5 3.5 -1.5 3.5 -0.8 0 -1.5 -0.6 -1.5 -1.4z"/>
 </g>
 <g fill="#3b76e2">
  <path d="M133.5 209.2 c-0.3 -0.3 -0.5 -2 -0.5 -3.8 0 -2.4 0.4 -3.1 1.8 -3 0.9 0 1.7 -0.6 1.7 -1.4 0 -0.9 -0.7 -1.4 -1.9 -1.2 -1.2 0.2 -1.6 -0.1 -1 -0.9 0.4 -0.7 0.7 -2.8 0.6 -4.6 -0.3 -3.8 -5.2 -2.2 42.9 -13.7 19.6 -4.7 36.4 -8.8 37.3 -9.2 1.4 -0.5 1.6 -3.3 1.6 -25.5 0 -28 -0.6 -26.1 8.4 -28.9 2.3 -0.7 4.1 -2 4.3 -3.1 0.9 -3.3 3.3 -2.2 3.3 1.5 0 3.1 -0.4 3.6 -3.7 4.6 -8.8 2.8 -8.3 1 -8.3 28.3 0 13.3 -0.4 24.7 -0.8 25.3 -0.4 0.6 -14.3 4.5 -31 8.5 -16.7 4.1 -29.7 7.5 -28.8 7.7 0.9 0.2 1.6 1.7 1.8 3.5 0.2 2.6 0.8 3.3 3 3.5 3.1 0.4 59.5 -13.3 61.5 -14.9 1 -0.9 1.3 -6.9 1.3 -29 l0 -27.9 7.5 -2.2 c7 -2.1 7.5 -2.4 7.5 -5 0 -3.6 2.5 -3.7 3.4 -0.2 1.1 4.2 -1.4 6.8 -8.3 8.7 l-6.1 1.7 0 27.3 c0 20.6 -0.3 27.7 -1.3 29.1 -0.9 1.2 -11.6 4.3 -37.2 10.6 -19.8 4.9 -36.3 9 -36.7 9 -0.5 0 -0.8 -2.3 -0.8 -5.2 l0 -5.1 -3.5 3.9 c-1.9 2.1 -4 5.1 -4.6 6.5 -1 2 -2.6 2.9 -7 4.1 -3.2 0.9 -6 1.3 -6.4 1z m5.5 -2.6 c0 -0.8 -0.4 -1.7 -0.8 -2 -1.3 -0.8 -3.5 1.1 -2.8 2.3 1 1.6 3.6 1.4 3.6 -0.3z"/>
  <path d="M75.5 190.8 c-33 -7 -37.5 -8.2 -38.3 -10.5 -0.5 -1.8 2.3 -1.6 12.5 0.8 29.3 6.8 39 8.2 43.3 5.9 4.1 -2.2 2.2 -3.8 -7.2 -5.9 -5.1 -1.2 -15.8 -3.6 -23.8 -5.4 l-14.5 -3.2 -0.3 -25.4 -0.2 -25.3 -5 -2.1 c-4.6 -1.9 -5 -2.4 -5 -5.4 0 -2.3 0.5 -3.3 1.5 -3.3 0.8 0 1.5 0.7 1.5 1.5 0 0.9 2 2.4 4.7 3.6 2.6 1.1 5 2.3 5.3 2.5 0.3 0.3 0.7 11.9 1 25.7 l0.5 25 22 4.9 c12.1 2.6 25.3 5.5 29.3 6.4 l7.2 1.5 0 8 c0 4.3 -0.3 7.9 -0.7 7.8 -0.5 0 -15.6 -3.2 -33.8 -7.1z"/>
  <path d="M161.7 164.2 c-2.2 -2.4 -2.2 -7.5 0.1 -9.4 0.9 -0.9 3.3 -2.3 5.3 -3.1 4 -1.6 3.9 -1.3 5.5 -19.7 0.7 -8.1 1.7 -10.8 4.6 -12.8 2.6 -1.9 2.2 -4.9 -1.1 -8.7 -2.5 -2.9 -2.9 -4.3 -3.5 -12.1 -1.2 -15.9 -1.2 -15.8 -5.9 -17.4 -4.9 -1.8 -7.3 -5.4 -6.3 -9.4 1 -4.2 4.1 -5 11.5 -3.1 6.8 1.7 10.6 3.7 11.5 6 0.3 0.8 1 6.3 1.6 12.2 1.9 19.5 1.8 19 5.1 20.3 6.3 2.6 7.8 9.6 3.4 14.9 -1.4 1.6 -3.4 3.3 -4.4 3.6 -2.1 0.6 -2.5 2.6 -4.1 20.5 -0.6 6.7 -1.7 12.4 -2.5 13.7 -1 1.4 -3.9 2.9 -8.4 4.3 -8.4 2.5 -10.3 2.5 -12.4 0.2z m24.1 -41.9 c1.5 -1.3 3.2 -2.3 3.8 -2.3 0.7 0 1.5 -1.2 1.9 -2.7 0.7 -2.8 -0.4 -4.2 -6.2 -8.2 -1.5 -1 -2.2 -2.9 -2.7 -7.5 -0.3 -3.3 -1.1 -6.2 -1.6 -6.4 -0.6 -0.2 -1 -1.1 -1.1 -2 0 -1.4 -0.2 -1.4 -0.6 -0.2 -0.4 0.8 -1.3 2 -2.1 2.6 -2.2 1.6 0.3 13.4 2.9 13.4 1.7 0 1.9 0.8 1.9 6.5 0 4 -0.4 6.5 -1.1 6.5 -2.4 0 -3.9 3.2 -4.5 9.9 -0.5 5 -0.4 7.1 0.5 7.1 0.6 0 1.1 1.7 1.1 4 0 2.2 0.5 4 1 4 0.6 0 1.1 1.5 1.1 3.3 0.1 1.7 0.8 -3.3 1.6 -11.3 1.4 -13.5 1.7 -14.6 4.1 -16.7z"/>
  <path d="M95.5 162.9 c-10.5 -3 -11 -3.8 -12.5 -21.4 -0.9 -10.6 -1.7 -15 -2.8 -15.8 -9.2 -7.3 -10.5 -11.6 -4.9 -17.1 1.7 -1.8 3.7 -3.5 4.4 -3.7 0.7 -0.2 1.8 -6 2.8 -15.4 1 -9 2.2 -15.9 3.1 -17.3 1.7 -2.7 3.9 -3.6 12.3 -5.3 5.5 -1.2 6.2 -1.1 8.1 0.6 1.5 1.4 2 2.9 1.8 5.4 -0.3 3.2 -0.8 3.9 -5.5 6.1 -5.2 2.5 -5.2 2.5 -5.8 8 -1.1 10.4 -1.5 12 -3.2 12 -1.4 0 -1.5 -1.2 -0.9 -9.6 0.4 -5.3 0.9 -10.1 1.2 -10.8 0.2 -0.6 2.3 -1.8 4.6 -2.6 4 -1.5 6.9 -4.3 5.6 -5.5 -0.4 -0.4 -3.1 -0.2 -6.2 0.5 -8.9 1.8 -10 3.9 -11.6 20.9 -0.8 7.8 -1.7 14.1 -2.2 14.1 -0.4 0 -0.8 0.6 -0.8 1.4 0 0.8 -1.3 2 -2.9 2.7 -3.3 1.5 -4.1 3.3 -3.4 7.3 0.3 1.6 1.2 2.6 2.3 2.6 0.9 0 2.6 0.8 3.8 1.8 1.8 1.6 2.3 4 3.6 16.6 0.9 8.2 1.6 15 1.6 15.1 0 0.2 1.2 -0.2 2.6 -0.8 l2.6 -1.2 -0.7 -11 c-0.8 -13 -2 -18.1 -4.6 -18.8 -1.4 -0.4 -1.9 -1.4 -1.9 -4.1 0 -2 0.5 -3.6 1 -3.6 0.6 0 1 -1.6 1 -3.5 0 -2.2 0.6 -3.8 1.5 -4.1 0.9 -0.4 1.5 -1.9 1.5 -3.5 0 -2.2 0.5 -2.9 2 -2.9 1.5 0 2 0.7 2 2.5 0 3.3 -2.4 8.1 -4.5 8.8 -2.4 1 -1.8 4.6 1.4 8.2 2.4 2.8 2.9 4.4 3.5 11.1 1.5 17.8 1.3 17.4 6.1 19.4 7.5 3.2 9.7 9.1 4.9 12.9 -1.5 1.2 -2.9 2.1 -3.3 2 -0.3 0 -3.7 -1 -7.6 -2z"/>
  <path d="M30.7 125 c-3.2 -1 -6.4 -2.4 -7.2 -3 -2.2 -1.8 -1.9 -5 0.5 -5 1.1 0 2 0.6 2 1.3 0 0.9 2.2 1.9 5.5 2.6 4.8 1.1 5.5 1.5 5.5 3.7 0 1.3 -0.1 2.4 -0.2 2.3 -0.2 0 -2.9 -0.9 -6.1 -1.9z"/>
  <path d="M37 99.6 c0 -3.2 0.3 -3.5 4.9 -5 5.6 -1.8 9.1 -2.1 9.1 -0.6 0 1.3 -3.8 3.6 -7.4 4.4 -1.6 0.4 -3 1.5 -3.3 2.6 -0.9 3.4 -3.3 2.4 -3.3 -1.4z"/>
  <path d="M229 101 c0 -1.1 -0.7 -2 -1.5 -2 -2.4 0 -1.8 -1.4 2.5 -5.9 3.7 -3.9 4.2 -4.1 8.2 -3.5 4.4 0.7 6.8 1.9 6.8 3.5 0 0.5 -0.6 0.9 -1.3 0.9 -0.7 0 -3 2 -5 4.5 -2.9 3.5 -4.5 4.5 -6.7 4.5 -2.3 0 -3 -0.5 -3 -2z"/>
  <path d="M22 94.7 c0 -3.2 2.7 -5.3 7.8 -6.2 2.3 -0.4 4.9 -1.3 5.6 -2.1 2.1 -2 2.6 -1.7 2.6 1.5 0 2.7 -0.3 2.9 -6 4 -4.9 1 -6 1.6 -6 3.2 0 1.2 -0.7 1.9 -2 1.9 -1.4 0 -2 -0.7 -2 -2.3z"/>
  <path d="M49 53.2 l0 -2.8 21.8 -3.8 c11.9 -2.1 30.3 -5.3 40.7 -7.1 10.6 -1.9 19.4 -3 19.9 -2.5 1.1 1.1 3.8 0.1 3 -1.1 -0.3 -0.5 0 -0.9 0.5 -0.9 0.7 0 1.1 -2.4 1.1 -5.9 0 -5.1 -0.2 -5.9 -1.7 -5.5 -10.8 2.3 -89.6 17.4 -91.2 17.4 -1.1 0 -2.1 0.5 -2.1 1 0 0.6 -1.1 1 -2.5 1 -1.4 0 -2.5 -0.3 -2.5 -0.7 0.1 -2.4 2.6 -3.7 10.6 -5.4 18.3 -3.9 86 -16.9 89.4 -17.1 l3.5 -0.3 0 9.5 0 9.4 -43.9 7.7 c-26.1 4.5 -44.2 8.1 -44.4 8.7 -0.7 2.3 -2.2 1.2 -2.2 -1.6z"/>
 </g>
 <g fill="#3d7fe5">
  <path d="M159.4 200.6 c-0.3 -0.8 -1.3 -1.2 -2.2 -0.9 -1.4 0.3 -1.8 -0.3 -2 -2.6 -0.2 -2.1 0.3 -3.1 1.5 -3.4 1.1 -0.3 0.6 -0.5 -1.1 -0.6 -1.6 0 -2.6 0.2 -2.3 0.5 1 1.1 -1.2 4.4 -3 4.4 -0.9 0 -1.3 -0.3 -1 -0.6 1 -1 -4.2 -4.6 -5.4 -3.8 -0.8 0.5 -0.9 0.3 -0.4 -0.6 0.6 -0.9 0.2 -1 -1.5 -0.5 -1.4 0.5 -2 0.3 -1.6 -0.3 0.3 -0.6 0.1 -1.2 -0.5 -1.4 -0.6 -0.2 1.1 -0.9 3.7 -1.6 22.6 -5.5 38 -9.2 38.6 -9.2 0.4 0 0.8 0.9 0.8 2 0 1.4 -0.7 2 -2.1 2 -2 0 -2.1 0.4 -1.5 4.2 0.4 2.3 0.9 4.4 1.2 4.7 0.2 0.3 5.5 -0.7 11.7 -2.2 12.6 -3.1 15.7 -3.3 15.7 -1.3 0 1 -6.5 3 -23.1 7 -12.7 3.1 -23.5 5.6 -24 5.6 -0.5 0 -1.2 -0.6 -1.5 -1.4z"/>
  <path d="M86.5 192.6 c-6 -1.3 -12.7 -2.6 -14.7 -3 -2.5 -0.5 -3.8 -1.2 -3.8 -2.3 0 -1.3 0.9 -1.5 4.7 -1 6 0.6 8.9 -0.5 9.5 -3.7 0.4 -2.2 0.2 -2.6 -1.8 -2.6 -1.7 0 -2.4 -0.6 -2.4 -2 0 -1.1 0.3 -2 0.7 -2 0.4 0 6.4 1.2 13.3 2.7 9.4 2.1 11.8 2.9 9.5 3.3 -2.5 0.4 -3 1 -3 3.3 0 1.6 -0.8 3.4 -1.7 4.1 -1 0.7 -1.5 1.6 -1.1 1.9 0.3 0.4 -0.2 0.7 -1.3 0.8 -1 0 -0.1 0.6 2.1 1.4 6.1 2 2.2 1.6 -10 -0.9z"/>
  <path d="M213 187.2 c0 -1.4 1.3 -2.1 5.1 -3 6.7 -1.6 9.9 -1.5 9.9 0.2 0 0.8 -2.4 2 -6.5 3 -8.1 2 -8.5 2 -8.5 -0.2z"/>
  <path d="M58.3 186.8 c-4.6 -1 -6.1 -3.8 -2 -3.8 5.8 0 9.7 1.3 9.7 3.1 0 2.1 -1.2 2.2 -7.7 0.7z"/>
  <path d="M41 182.7 c-4.1 -1.4 -5.7 -5.7 -2.1 -5.7 1.2 0 2.1 0.6 2.1 1.5 0 1 1.1 1.5 3.5 1.5 2.8 0 3.5 0.4 3.5 2 0 2.3 -1.8 2.5 -7 0.7z"/>
  <path d="M64.8 176.8 c-3.7 -0.8 -4.8 -1.5 -4.8 -2.9 0 -2.3 0 -2.3 8.9 -0.3 4.6 1.1 7.1 2.1 7.1 3 0 1.6 -4 1.7 -11.2 0.2z"/>
  <path d="M201 176.6 c0 -0.9 2.6 -2 7.3 -3.1 3.9 -1 7.5 -2.2 7.8 -2.7 0.3 -0.5 0.4 -2.2 0.3 -3.6 -0.6 -4.3 0.5 -9.2 2.1 -9.2 1.2 0 1.5 1.7 1.5 8 0 7.3 -0.2 8 -2 8 -1.1 0 -2 0.4 -2 0.8 0 1 -8.9 3.2 -12.6 3.2 -1.4 0 -2.4 -0.6 -2.4 -1.4z"/>
  <path d="M51 172 c0 -2.1 1 -2.4 4.8 -1.4 3.6 1 2.7 3.4 -1.3 3.4 -2.8 0 -3.5 -0.4 -3.5 -2z"/>
  <path d="M180.4 160.2 c1.1 -1.2 1.6 -2.5 1.2 -2.9 -0.4 -0.5 -1.2 0 -1.8 1 -0.8 1.5 -1.2 1.6 -2.4 0.6 -1.2 -1 -1.5 -1 -1.2 0.2 0.2 0.9 -0.4 1.3 -1.7 1.1 -2.1 -0.4 -3.8 -2.3 -2.9 -3.1 0.3 -0.3 0.9 0.1 1.4 0.9 0.5 0.8 1 1.2 1.2 1 1.8 -2.8 2.8 -5.3 2.4 -5.8 -0.3 -0.3 -0.6 0.1 -0.6 0.9 0 1.1 -0.2 1.1 -1 -0.1 -1.4 -2.1 -1.2 -2.8 0.8 -3.3 1.5 -0.4 1.5 -0.5 0.1 -0.6 -1.3 -0.1 -1.6 -1 -1.5 -4 0.1 -2.2 -0.2 -3.7 -0.7 -3.4 -0.5 0.3 -0.6 1.6 -0.3 2.8 0.3 1.3 0.1 2.7 -0.5 3 -0.7 0.5 -0.9 -1.8 -0.4 -7.6 1.2 -17.4 1.5 -18.7 4.1 -20.8 1.3 -1 2.4 -2.4 2.4 -3 0 -0.6 0.5 -1.1 1 -1.1 0.6 0 1 1.6 1 3.5 0 2.4 -0.5 3.5 -1.5 3.5 -1.8 0 -1.8 0.1 0 3.6 1 2 1.5 2.3 1.5 1.2 0 -1 0.5 -1.8 1 -1.8 0.6 0 1 -0.7 1 -1.5 0 -1 1.1 -1.5 3.5 -1.5 4 0 4.3 0.5 1.6 2.8 -1.6 1.4 -2.2 4.2 -3.4 17 -1.3 13.9 -1.7 15.6 -3.8 17.5 l-2.3 2.2 1.8 -2.3z"/>
  <path d="M87.7 159 c-1.9 -1.5 -2.7 -3.3 -3.1 -7.2 -1.9 -15.9 -2 -14.8 0.3 -14.8 1.7 0 2.1 0.6 2.1 3 0 2 0.5 3 1.5 3 0.8 0 1.5 -0.9 1.5 -2 0 -1.1 0.5 -2 1 -2 0.6 0 1 -1.1 1 -2.5 0 -1.5 0.6 -2.5 1.5 -2.5 1.4 0 2.3 3.1 2.7 10.5 0.2 3.1 0.9 4.2 2.8 5.2 1.5 0.8 1.9 1.3 0.9 1.3 -0.9 0 -1.6 0.7 -1.6 1.5 0 0.8 0.4 1.5 0.9 1.5 0.4 0 0.8 0.8 0.8 1.8 -0.1 1.5 -0.2 1.5 -1.6 -0.3 -1.1 -1.3 -1.8 -1.6 -2.1 -0.8 -0.2 0.7 -1 1 -1.8 0.7 -0.7 -0.3 -1.8 0.4 -2.4 1.5 -1 1.7 -0.9 2 0.4 1.5 0.8 -0.4 1.5 -0.2 1.5 0.4 0 0.8 -2.2 2.2 -3.4 2.2 -0.2 0 -1.5 -0.9 -2.9 -2z"/>
  <path d="M82.6 132.8 c-1.1 -4.2 -0.7 -5.8 1.4 -5.8 1.7 0 2 0.7 2 4 0 4.5 -2.3 5.7 -3.4 1.8z"/>
  <path d="M228 127.5 c0 -3.3 0.2 -3.5 3.5 -3.5 4.1 0 4.9 2.4 1 3.4 -1.4 0.4 -2.5 1.3 -2.5 2.1 0 0.8 -0.4 1.5 -1 1.5 -0.5 0 -1 -1.6 -1 -3.5z"/>
  <path d="M37 128.5 c0 -0.8 -0.9 -1.9 -2 -2.5 -3.1 -1.6 -2.4 -3 1.5 -3 3.3 0 3.5 0.2 3.5 3.5 0 2.4 -0.5 3.5 -1.5 3.5 -0.8 0 -1.5 -0.7 -1.5 -1.5z"/>
  <path d="M91 126.5 c0 -1.4 -0.4 -2.5 -1 -2.5 -0.5 0 -1 -1.4 -1 -3 0 -2.7 0.2 -2.9 1.9 -2.1 1.8 1 4.1 5.9 4.1 8.7 0 0.8 -0.9 1.4 -2 1.4 -1.5 0 -2 -0.7 -2 -2.5z"/>
  <path d="M216.7 126.1 c-0.7 -2.9 1.4 -6.3 5.1 -7.8 3.1 -1.3 3.2 -1.2 3.2 1.2 0 2 -0.5 2.5 -2.5 2.5 -2.1 0 -2.5 0.5 -2.5 3 0 3.4 -2.5 4.2 -3.3 1.1z"/>
  <path d="M238 123.4 c0 -2 2.8 -4.3 5.3 -4.4 2.4 0 2.2 3.7 -0.2 5 -2.9 1.5 -5.1 1.2 -5.1 -0.6z"/>
  <path d="M39.8 119.3 c-1.3 -0.3 -1.8 -1.5 -1.8 -3.9 0 -1.9 0.5 -3.4 1 -3.4 0.6 0 1 0.6 1 1.3 0 0.8 1.8 2.1 4 3 2.2 0.8 4 2 4 2.6 0 1.1 -4.8 1.3 -8.2 0.4z"/>
  <path d="M192 115 c0 -5.3 1.2 -6.4 3 -2.9 1.4 2.5 0.3 7.9 -1.6 7.9 -1 0 -1.4 -1.3 -1.4 -5z"/>
  <path d="M86 111.5 c0 -2.8 0.4 -3.5 2 -3.5 1.6 0 2.1 -0.9 2.6 -5 0.5 -4.1 1 -5 2.6 -5 1.8 0 2 0.4 1.3 4.8 -0.4 2.9 -1.6 5.7 -3.1 7.3 -1.3 1.4 -2.4 3 -2.4 3.7 0 0.7 -0.7 1.2 -1.5 1.2 -1 0 -1.5 -1.1 -1.5 -3.5z"/>
  <path d="M179 113.9 c0 -0.6 -0.9 -1.8 -2 -2.7 -1.2 -1 -2.5 -3.5 -3 -5.7 -1.6 -6.9 -1 -15.3 1 -14 0.4 0.3 1.1 -1 1.4 -2.8 0.6 -2.7 0.9 -3 1.9 -1.7 0.7 0.9 2.4 1.5 4 1.4 2.4 -0.3 2.7 0 2.7 3 0 1.9 0.3 4.7 0.6 6.4 0.6 3 0.5 3.2 -3.6 3.8 -4.9 0.8 -6.2 2.9 -3.1 5 1.4 1.1 2.1 2.6 2.1 5 0 1.9 -0.4 3.4 -1 3.4 -0.5 0 -1 -0.5 -1 -1.1z"/>
  <path d="M77 108 c0 -0.5 0.9 -1.4 2 -2 1.1 -0.6 2.3 -2.2 2.6 -3.5 0.9 -3.5 3.4 -3.2 3.4 0.4 0 4.9 -0.9 6.1 -4.6 6.1 -1.9 0 -3.4 -0.4 -3.4 -1z"/>
  <path d="M229 102 c0 -1.1 0.7 -2 1.5 -2 0.7 0 3.1 -2 5.2 -4.5 2 -2.5 4.5 -4.5 5.5 -4.5 2.5 0 2.3 3.7 -0.2 5.2 -1.1 0.7 -2 1.8 -2 2.5 0 0.8 -1.3 1.3 -3 1.3 -2.3 0 -3 0.4 -3 2 0 1.3 -0.7 2 -2 2 -1.3 0 -2 -0.7 -2 -2z"/>
  <path d="M226 98 c0 -0.5 1.4 -1 3 -1 2.3 0 3 -0.4 3 -2 0 -1.1 0.4 -2 0.9 -2 0.5 0 1.1 -0.9 1.4 -2 0.3 -1.1 1 -2 1.6 -2 1.5 0 -0.5 4.9 -3.1 7.8 -2.2 2.2 -6.8 3.1 -6.8 1.2z"/>
  <path d="M42 96 c0 -1.6 0.7 -2 3.5 -2 3.9 0 4.6 1.4 1.6 3 -3.1 1.6 -5.1 1.2 -5.1 -1z"/>
  <path d="M82 96.3 c0 -3.4 1.2 -6.3 2.6 -6.3 1 0 1.4 1.3 1.4 4 0 3.3 -0.3 4 -2 4 -1.2 0 -2 -0.7 -2 -1.7z"/>
  <path d="M92 90 c0 -3.3 0.3 -4 2 -4 2.1 0 2.5 1.6 1.4 5.8 -1.1 3.9 -3.4 2.7 -3.4 -1.8z"/>
  <path d="M83 87.3 c0 -3.4 1.2 -6.3 2.6 -6.3 1 0 1.4 1.3 1.4 4 0 3.3 -0.3 4 -2 4 -1.2 0 -2 -0.7 -2 -1.7z"/>
  <path d="M183.2 82.8 c-0.1 -2.1 -0.7 -3.8 -1.3 -3.8 -0.5 0 -0.8 -0.4 -0.5 -0.9 0.4 -0.5 0 -1.2 -0.6 -1.4 -1 -0.4 -1 -0.6 0 -0.6 0.6 -0.1 1.2 -0.6 1.2 -1.2 0 -0.5 -0.4 -0.8 -0.9 -0.4 -0.5 0.3 -1.2 0.2 -1.5 -0.3 -0.3 -0.5 0.2 -0.9 1 -0.9 2.1 0 3.6 4.2 3.1 9.1 l-0.4 4.1 -0.1 -3.7z"/>
  <path d="M93 81 c0 -2.7 0.7 -4.7 2 -6 3.1 -3.1 2.4 -3.7 -2.5 -2.6 -4.2 1 -4.5 1.3 -4.5 4.3 0 2.6 -0.4 3.3 -2 3.3 -2.9 0 -2.6 -4.1 0.5 -7.8 1.8 -2.2 4 -3.4 7.8 -4.2 2.8 -0.6 6.1 -1.3 7.3 -1.6 2.8 -0.7 6.4 2.7 6.4 6 0 2.9 -3.8 6.2 -8 7.1 -2.1 0.5 -3.2 1.4 -3.6 3.1 -1 4 -3.4 2.9 -3.4 -1.6z"/>
  <path d="M177.4 76.2 c0.4 -0.7 0.2 -1.2 -0.4 -1.2 -0.8 0 -0.8 -0.6 0 -2 0.6 -1.1 1.6 -2 2.3 -2 0.8 0 0.7 0.3 -0.2 0.9 -0.8 0.5 -1.1 1.6 -0.8 2.5 0.3 0.8 0.1 1.8 -0.5 2.2 -0.7 0.4 -0.8 0.3 -0.4 -0.4z"/>
  <path d="M53 51 c0 -1.6 0.7 -2 3.5 -2 4 0 4.9 2.4 1.3 3.4 -3.8 1 -4.8 0.7 -4.8 -1.4z"/>
  <path d="M65 49 c0 -1.6 0.7 -2 3.5 -2 4 0 4.9 2.4 1.3 3.4 -3.8 1 -4.8 0.7 -4.8 -1.4z"/>
  <path d="M94 44 c0 -1.6 0.7 -2 3.5 -2 4 0 4.9 2.4 1.3 3.4 -3.8 1 -4.8 0.7 -4.8 -1.4z"/>
  <path d="M37.5 40 c1 -1.1 2.6 -2 3.7 -2 1.1 0 1.8 0.7 1.8 2 0 1.6 -0.7 2 -3.7 2 -3.5 0 -3.6 0 -1.8 -2z"/>
  <path d="M62 35.6 c0 -1.3 2.8 -2.6 5.8 -2.6 0.6 0 1.2 0.9 1.2 2 0 1.6 -0.7 2 -3.5 2 -2.3 0 -3.5 -0.5 -3.5 -1.4z"/>
  <path d="M72 33.6 c0 -0.9 1.9 -1.8 5 -2.5 6.7 -1.4 7 -1.4 7 0.8 0 1.4 -1 2 -3.7 2.5 -6 0.9 -8.3 0.7 -8.3 -0.8z"/>
  <path d="M92 29.6 c0 -1.3 2.8 -2.6 5.8 -2.6 0.6 0 1.2 0.9 1.2 2 0 1.6 -0.7 2 -3.5 2 -2.3 0 -3.5 -0.5 -3.5 -1.4z"/>
  <path d="M118 24.6 c0 -1.3 2.8 -2.6 5.8 -2.6 0.6 0 1.2 0.9 1.2 2 0 1.6 -0.7 2 -3.5 2 -2.3 0 -3.5 -0.5 -3.5 -1.4z"/>
 </g>
 <g fill="#458aef">
  <path d="M177 197 c1.3 -0.8 1.3 -1 -0.2 -1.1 -1 -0.1 -2.2 -0.3 -2.8 -0.4 -0.5 -0.1 -1.5 -0.3 -2.1 -0.4 -0.6 0 -0.3 -0.8 0.6 -1.7 1.1 -1.1 1.3 -2 0.5 -2.8 -0.5 -0.7 -0.7 -1.6 -0.3 -1.9 0.3 -0.4 -0.1 -0.7 -1.1 -0.7 -0.9 0 -1.4 -0.5 -1.1 -1 0.3 -0.6 1.8 -0.8 3.3 -0.5 2.8 0.6 3 0.7 -3.8 -2.4 l-2.5 -1.1 2.8 0.3 c1.5 0.3 2.7 0.1 2.7 -0.3 0 -0.7 15.5 -5 18 -5 0.5 0 1 0.7 1 1.6 0 1.8 -2.3 4.4 -3.9 4.4 -1.2 0 -1.3 0.6 -0.5 3.7 0.4 1.4 1.7 2.3 4 2.8 5.9 1.1 4 3.1 -5.1 5.4 -9.4 2.3 -11.9 2.6 -9.5 1.1z"/>
  <path d="M76.5 190.3 c-1.1 -0.2 -4.4 -0.9 -7.2 -1.4 -3.5 -0.7 -5.3 -1.5 -5.3 -2.5 0 -0.8 0.5 -1.4 1 -1.4 0.6 0 1 -1.1 1 -2.4 0 -2.4 1.6 -3.6 5.1 -3.6 1.2 0 1.9 -0.7 1.9 -2 0 -2.4 -0.4 -2.4 9.2 -0.3 6.9 1.4 7.6 1.8 6 3 -0.9 0.8 -1.1 1.2 -0.4 0.8 2.1 -1.1 1.3 1.2 -1 2.9 -1.6 1.2 -1.9 1.8 -1 2.2 2.5 1.1 0.7 2.8 -4 3.8 -0.3 0 -1 0.4 -1.4 0.9 -0.4 0.4 -1 0.6 -1.3 0.6 -0.3 -0.1 -1.5 -0.3 -2.6 -0.6z"/>
  <path d="M205 189.1 c0 -1.9 3.4 -3.1 8.6 -3.1 4.1 0 2.7 2.7 -2 3.9 -6 1.5 -6.6 1.4 -6.6 -0.8z"/>
  <path d="M150 189.1 c-2.4 -0.7 -2.4 -0.7 0.9 -1.4 1.9 -0.4 3.6 -0.5 3.9 -0.2 0.3 0.3 -0.2 0.5 -1.2 0.5 -0.9 0 -1.4 0.5 -1.1 1 0.3 0.6 0.5 1 0.3 0.9 -0.2 -0.1 -1.4 -0.4 -2.8 -0.8z"/>
  <path d="M159.4 188.2 c0.5 -0.8 -0.1 -1.2 -1.6 -1.3 -1.8 -0.1 -1.6 -0.3 1.1 -1 1.8 -0.6 3.6 -0.8 3.9 -0.5 0.3 0.3 -0.2 0.6 -1.2 0.6 -0.9 0 -1.5 0.4 -1.1 0.9 0.3 0.5 0 1.3 -0.6 1.7 -0.8 0.4 -0.9 0.3 -0.5 -0.4z"/>
  <path d="M45.8 183.8 c-4.2 -1.1 -5.2 -3.8 -1.4 -3.8 5.2 0 8.6 1.2 8.6 3.1 0 2.1 -1.4 2.2 -7.2 0.7z"/>
  <path d="M193 178.6 c0 -0.8 1.9 -1.8 4.4 -2.5 6 -1.5 6.6 -1.4 6.6 0.8 0 1.3 -1 2 -3.1 2.5 -5.1 1 -7.9 0.7 -7.9 -0.8z"/>
  <path d="M83.6 140.3 c-0.4 -4.3 -1 -9.3 -1.3 -11 -0.4 -2.9 -0.2 -3.3 1.6 -3.3 1.4 0 2.1 0.6 2.1 2 0 1.3 0.5 1.8 1.5 1.4 0.8 -0.4 1.5 -1.5 1.5 -2.5 0 -1 0.5 -1.9 1 -1.9 0.6 0 1 -0.4 1 -1 0 -0.5 -0.7 -1 -1.5 -1 -1.1 0 -1.5 -1.1 -1.5 -3.6 l0 -3.5 3 3.2 c1.9 2.1 3.1 4.7 3.4 7.3 0.9 7.4 1.5 18.1 1 16.9 -0.9 -2.1 -2.4 -1.5 -2.4 1 0 2 -0.5 2.3 -3 2.1 -1.7 -0.1 -3.3 0.2 -3.6 0.7 -1.4 2.3 -2.2 0.3 -2.8 -6.8z"/>
  <path d="M177.4 132.3 c-0.5 -2.1 -1.5 -3.7 -2.2 -3.5 -2.1 0.4 -1.4 -5.6 1.1 -8 l2.2 -2.3 0.3 2.2 c0.3 1.7 1.5 2.6 5 3.7 2.6 0.8 4.1 1.5 3.5 1.5 -0.8 0.1 -1.3 1.4 -1.3 3.1 0 1.7 -0.5 3 -1.1 3 -0.5 0 -0.7 0.5 -0.4 1 0.3 0.6 -0.1 1 -0.9 1 -0.9 0 -1.6 0.6 -1.6 1.3 0 0.8 -0.4 0.7 -1 -0.3 -0.8 -1.2 -1.2 -1.2 -1.8 -0.2 -0.6 0.8 -1.2 0 -1.8 -2.5z"/>
  <path d="M179 114.7 c0 -1.3 -1.1 -3.4 -2.5 -4.7 -2.1 -2 -2.5 -3.2 -2.3 -6.5 0.3 -3.5 0.6 -4 3.1 -4.3 1.6 -0.2 2.7 -0.9 2.7 -1.9 0 -0.8 0.9 -1.7 1.9 -2 1.1 -0.3 2.2 -1.2 2.4 -2.2 0.2 -0.9 0.7 1.5 1.2 5.2 0.5 5 1.2 7.1 2.6 8 1.1 0.7 1.9 1.5 1.9 1.9 0 1.3 -6.8 0.9 -7.3 -0.4 -0.3 -0.7 -0.3 1.1 0 4 0.5 4.8 0.4 5.2 -1.6 5.2 -1.5 0 -2.1 -0.6 -2.1 -2.3z"/>
  <path d="M91 100.5 c0 -2.8 0.4 -3.5 2 -3.5 2.1 0 2.4 1 1.4 4.8 -1 3.6 -3.4 2.7 -3.4 -1.3z"/>
  <path d="M229 102.6 c0 -0.7 1.1 -2.1 2.5 -3 1.4 -0.9 3.9 -3.2 5.7 -5.1 3.4 -3.8 6.8 -4.6 6.8 -1.7 0 1 -2.1 4 -4.6 6.5 -3.4 3.5 -5.4 4.7 -7.5 4.7 -1.8 0 -2.9 -0.5 -2.9 -1.4z"/>
  <path d="M227 98 c0 -0.5 0.4 -1 0.8 -1 0.5 0 2.8 -1.9 5.1 -4.2 4.1 -4.2 4.2 -4.2 3.1 -1.3 -0.6 1.7 -2.1 4 -3.2 5.3 -2.2 2.2 -5.8 3 -5.8 1.2z"/>
  <path d="M91.6 89.8 c-0.3 -1.3 -0.6 -3.3 -0.6 -4.5 0 -1.4 -0.6 -2.3 -1.5 -2.3 -0.8 0 -1.5 -0.4 -1.5 -1 0 -0.5 -1 -1 -2.1 -1 -1.9 0 -2.1 -0.4 -1.5 -3.7 0.9 -4.9 4.2 -7.8 10.3 -9.1 2.6 -0.6 5.7 -1.4 6.8 -1.7 1.7 -0.6 1.8 -0.5 0.5 0.5 -1.3 1 -1.2 1.1 0.6 0.7 1.3 -0.3 2.1 0.1 2.1 0.9 0 0.8 -0.8 1.4 -1.8 1.4 -2.2 0 -3.3 1.6 -1.8 2.5 0.5 0.4 0.8 1.3 0.5 2.1 -0.3 0.9 0.1 1.4 1.3 1.4 1.3 0 1.8 -0.6 1.6 -2.3 -0.2 -1.4 0.2 -2.4 1.1 -2.4 0.9 0 1 0.5 0.3 1.9 -0.7 1.3 -0.6 1.8 0.3 1.8 0.9 0 0.9 0.3 0 1.2 -0.7 0.7 -2.8 1.1 -4.6 1 -1.9 -0.2 -3.7 0.2 -4.2 0.9 -0.5 0.9 -0.2 1 1 0.6 1 -0.4 1.5 -0.3 1.1 0.3 -0.3 0.6 -1.3 1 -2.1 1 -1 0 -1.4 1.2 -1.4 3.8 0 5.1 -1 8.2 -2.5 8.2 -0.7 0 -1.5 -1 -1.9 -2.2z"/>
 </g>
 <g fill="#8a5ada">
  <path d="M127.7 123.4 c-5.5 -5.5 -4 -13.6 3.1 -17 4.2 -2 8.1 -1.1 11.5 2.4 3.5 3.7 4.2 7.3 2.3 11 -2.2 4.3 -5.4 6.2 -10.2 6.2 -3.1 0 -4.8 -0.6 -6.7 -2.6z"/>
  <path d="M221 97.4 c-1.9 -0.8 -3.8 -2 -4.2 -2.7 -0.4 -0.7 -0.8 -10.3 -0.8 -21.4 0 -11.6 -0.4 -20.3 -0.9 -20.3 -1.3 0 -43.2 -8 -45.3 -8.6 -1 -0.3 -1.8 -1.2 -1.8 -2.1 0 -1.2 0.9 -1.4 3.8 -1.1 7.9 0.9 44.7 8.3 45 9 0.2 0.5 1 0.8 1.8 0.8 1.2 0 1.4 3.5 1.4 20.3 0 11.1 0.4 20.7 0.8 21.3 0.4 0.6 2.4 1.4 4.5 1.8 2.8 0.5 3.7 1.2 3.7 2.6 0 2.4 -3 2.6 -8 0.4z"/>
  <path d="M229.1 88.3 c0.1 -2.1 0.3 -3 0.6 -2.1 0.2 0.9 1.7 2 3.4 2.3 4.2 0.9 3.8 3.5 -0.6 3.5 -3.4 0 -3.5 -0.1 -3.4 -3.7z"/>
  <path d="M227 50.1 c0 -3 -0.5 -5.3 -1.5 -6.1 -0.8 -0.6 -14 -3.2 -29.5 -5.8 -24.8 -4 -28 -4.7 -28 -6.4 0 -1 0.1 -1.8 0.3 -1.8 0.2 0 12.9 2 28.3 4.5 15.3 2.5 28.4 4.5 29.1 4.5 2.6 0 5.3 3.9 5.3 7.8 0 5.2 -1 8.2 -2.6 8.2 -1 0 -1.4 -1.4 -1.4 -4.9z"/>
 </g>
 <g fill="#4692e8">
  <path d="M181.8 196.3 c1.5 -0.3 2.2 -1 1.8 -1.8 -0.3 -0.8 0 -1.6 0.7 -1.9 0.7 -0.2 0 -0.5 -1.5 -0.5 -1.6 -0.1 -2.8 -0.6 -2.8 -1.2 0 -0.7 1 -0.9 2.4 -0.7 1.7 0.3 2.3 0.1 1.9 -0.8 -0.2 -0.7 -1.7 -1.4 -3.1 -1.6 -1.9 -0.2 -2.8 -1 -3 -2.5 -0.3 -1.9 0.1 -2.1 2.2 -1.7 3.6 0.6 3.2 -0.4 -0.5 -1.3 -2.6 -0.7 -0.2 -1.6 16.6 -5.7 16 -4 19.9 -5.2 20.2 -6.7 0.9 -3.4 3.3 -2.2 3.3 1.6 0 3.3 -0.2 3.5 -3.5 3.5 -1.9 0 -3.5 0.5 -3.5 1 0 0.6 -0.8 1 -1.7 1 -3.5 0 -4.5 1.4 -3.2 4.3 0.7 1.5 1.8 2.7 2.6 2.7 0.8 0 1.3 1.1 1.3 2.8 0 2.7 -0.1 2.8 -15.2 6.5 -8.4 2 -15.7 3.6 -16.3 3.6 -0.5 -0.1 0 -0.4 1.3 -0.6z"/>
  <path d="M63 187.5 c-17.6 -3.8 -20.1 -4.6 -19.8 -6.4 0.3 -1.3 1.9 -1.7 8.1 -1.9 6.7 -0.2 7.7 -0.5 7.7 -2.1 0 -1.4 -1.3 -2.1 -6 -3 -5.9 -1.2 -6 -1.2 -6 -4.7 0 -2.4 0.5 -3.4 1.5 -3.4 0.8 0 1.5 0.6 1.5 1.4 0 2.1 0.2 2.1 15.6 5.7 7.6 1.7 14.5 3.6 15.2 4.1 2.2 1.9 1.3 3.5 -2.8 4.7 -4.7 1.4 -5.1 2.6 -1.2 3.6 l2.7 0.7 -2.3 0.9 c-1.3 0.5 -2 1.3 -1.7 1.9 0.8 1.3 -0.1 1.2 -12.5 -1.5z"/>
  <path d="M82.8 132.6 c-0.4 -4.7 -1 -6.3 -2.8 -7.5 -3.6 -2.6 -7 -5.9 -7 -7.1 0 -1.8 4.5 -1.1 6 1 1.6 2.3 4 2.7 4 0.7 0 -0.8 1.1 -1.9 2.4 -2.7 2.2 -1.1 2.7 -1 5.4 2.1 2.4 2.7 3.2 4.7 3.7 9.5 0.4 3.4 0.5 7 0.2 8 -0.3 1.1 -0.5 0.5 -0.7 -1.6 -0.1 -1.9 -0.5 -4.4 -1 -5.5 -0.8 -1.8 -0.9 -1.7 -0.9 0.8 -0.1 1.9 -0.5 2.6 -1.3 2.1 -0.8 -0.5 -0.9 -0.2 -0.5 1 0.5 1.4 0.3 1.5 -1.3 0.6 -2.5 -1.4 -3 -1.3 -3 0.6 0 0.8 -0.4 1.3 -0.9 0.9 -0.5 -0.3 -1.1 0.3 -1.3 1.2 -0.2 1 -0.7 -0.9 -1 -4.1z"/>
  <path d="M179.7 127.1 c-4.8 -1.4 -5.5 -1.9 -4.5 -3 1.1 -1.2 1 -1.2 -0.2 -0.6 -1.3 0.8 -1.3 0.7 0 -1.1 0.8 -1 2 -2.3 2.7 -2.9 1 -0.9 1.9 -5.2 1.3 -6.5 -0.1 -0.3 -0.4 -2.4 -0.5 -4.7 -0.4 -4.1 -0.2 -4.3 2.4 -4.3 1.5 0 3.2 -0.5 3.9 -1.2 0.9 -0.9 1.2 -0.7 1.2 0.8 0 1.2 1 2.5 2.5 3.2 3 1.4 3.2 3.2 0.5 3.9 -1.1 0.3 -2 1.2 -2 1.9 0 0.8 -0.9 1.4 -2 1.4 -2.1 0 -2.4 1 -1.4 4.8 0.7 2.6 4.8 3.1 5.8 0.7 0.6 -1.7 5.6 -2.1 5.6 -0.5 0 1.4 -4.7 5.8 -7 6.5 -1.1 0.3 -2 1.2 -2.2 1.9 -0.2 1 -1.5 1 -6.1 -0.3z"/>
  <path d="M231 125 c0 -1.6 0.7 -2 3.5 -2 4 0 4.9 2.4 1.3 3.4 -3.8 1 -4.8 0.7 -4.8 -1.4z"/>
  <path d="M217 122.1 c0 -1.3 2.1 -2.7 7.3 -4.6 2.6 -1 4.7 -2.4 4.7 -3.1 0 -0.8 0.5 -1.4 1 -1.4 0.6 0 1 1.6 1 3.5 0 3.3 -0.2 3.5 -4 4.1 -2.2 0.4 -4 1 -4 1.5 0 0.5 -1.3 0.9 -3 0.9 -1.6 0 -3 -0.4 -3 -0.9z"/>
  <path d="M73 112 c0 -1.5 5 -6 6.6 -6 1.7 0 2 -1.6 3.5 -16 0.9 -8.2 1.7 -11.9 2.8 -12.8 0.9 -0.8 1 -1.1 0.4 -0.7 -0.8 0.4 -1.3 -0.1 -1.3 -1.4 0 -2.2 4.5 -6.1 6.9 -6 0.9 0 0.5 0.6 -1.1 1.3 -2.2 0.9 -2.5 1.5 -1.6 2.4 0.7 0.7 1.8 1.2 2.6 1.2 0.7 0 1 0.5 0.7 1 -0.3 0.6 -1.6 1 -2.7 1 -2.1 0 -2.1 0 -0.2 1.9 1 1 2.2 1.4 2.5 0.9 0.3 -0.5 1.3 0 2.3 1.1 1.6 1.7 1.6 3 0.6 14.2 -1.2 13 -1.9 15.2 -5 16.9 -3.1 1.7 -4 1.2 -4 -2.5 0 -2.4 0.5 -3.5 1.5 -3.5 0.8 0 1.5 -0.7 1.5 -1.5 0 -0.8 -0.9 -1.5 -2 -1.5 -1.5 0 -2 0.7 -2 2.6 0 2.8 -2.1 5.4 -4.3 5.4 -0.8 0 -1.7 0.7 -2.1 1.5 -0.6 1.7 -5.6 2.1 -5.6 0.5z"/>
  <path d="M229 103 c0 -1.1 0.6 -2 1.4 -2 0.8 0 3.7 -2.3 6.4 -5.1 3.4 -3.4 5.6 -5 6.6 -4.6 3.3 1.3 0.7 5.5 -7.1 11.6 -3.4 2.8 -7.3 2.8 -7.3 0.1z"/>
  <path d="M227.6 98 c1.1 -0.4 3.5 -2.2 5.2 -4 3.8 -3.8 4.3 -2.4 0.6 1.9 -1.7 2.1 -3.4 3.1 -5.2 3 -2.5 0 -2.5 -0.1 -0.6 -0.9z"/>
  <path d="M22.4 94.8 c0.7 -3.6 2.9 -5.8 5.8 -5.8 1.1 0 1.8 0.7 1.8 2 0 1.3 -0.7 2 -2 2 -1.5 0 -2 0.7 -2 2.5 0 1.9 -0.5 2.5 -2.1 2.5 -1.9 0 -2.1 -0.4 -1.5 -3.2z"/>
  <path d="M59 50 c0 -1.6 0.7 -2 3.5 -2 4 0 4.9 2.4 1.3 3.4 -3.8 1 -4.8 0.7 -4.8 -1.4z"/>
  <path d="M76 47 c0 -1.6 0.7 -2 3.5 -2 4 0 4.9 2.4 1.3 3.4 -3.8 1 -4.8 0.7 -4.8 -1.4z"/>
  <path d="M99 43.2 c0 -1.5 0.9 -2.1 4.6 -2.6 6.9 -0.9 8.4 -0.8 8.4 0.8 0 1.4 -1.1 1.8 -9.2 3.2 -3.3 0.5 -3.8 0.4 -3.8 -1.4z"/>
  <path d="M128 38 c0 -2 2.4 -2.8 3.5 -1 0.3 0.5 1.2 0.7 2 0.3 0.8 -0.3 1.5 -0.1 1.5 0.5 0 0.9 -3.2 2.2 -5.7 2.2 -0.7 0 -1.3 -0.9 -1.3 -2z"/>
  <path d="M123 23.6 c0 -1.3 2.8 -2.6 5.8 -2.6 0.6 0 1.2 0.9 1.2 2 0 1.6 -0.7 2 -3.5 2 -2.3 0 -3.5 -0.5 -3.5 -1.4z"/>
 </g>
 <g fill="#7567f1">
  <path d="M233.6 99.8 c1.6 -1.3 3.5 -2.9 4.2 -3.8 1.2 -1.3 1.2 -1.3 0.6 0 -1.3 2.7 -4.7 6 -6.2 6 -0.9 0 -0.3 -0.9 1.4 -2.2z"/>
  <path d="M223 97.6 c-6.3 -2 -6 -1 -6 -23.1 0 -13.9 -0.4 -20.6 -1.1 -21.1 -0.6 -0.3 -10.2 -2.4 -21.3 -4.5 -11 -2.1 -21.6 -4.1 -23.3 -4.5 l-3.3 -0.7 0 -6.8 0 -6.8 2.8 0.5 c1.5 0.3 14.8 2.5 29.5 4.9 14.7 2.4 27.5 4.9 28.3 5.5 1.1 1 1.4 5.4 1.4 24 0 24.4 -0.1 24 5.1 24 1.6 0 1.7 0.4 0.8 2.8 -1.5 3.9 -4.9 7.2 -7.3 7.1 -1.2 -0.1 -3.7 -0.6 -5.6 -1.3z"/>
 </g>
 <g fill="#4b9fea">
  <path d="M207.2 188.8 c-0.5 -0.7 -1.3 -2.3 -1.6 -3.5 -0.4 -1.3 -1.2 -2.3 -1.8 -2.3 -0.5 0 -0.8 -0.7 -0.4 -1.5 0.4 -1.1 -0.1 -1.5 -1.7 -1.5 -2.1 -0.1 -2.1 -0.1 0.3 -1.5 2.2 -1.2 2.2 -1.4 0.6 -1.5 -3.6 0 -0.3 -1.7 7.1 -3.5 l7.3 -1.9 0.2 -25.5 0.3 -25.6 5.5 -2.2 5.5 -2.2 0.3 -7 c0.2 -5.5 0.6 -7.1 2 -7.5 1.8 -0.6 5.4 -3.7 9 -8 3.4 -4 5.4 -2 5 4.8 -0.3 4.7 -0.5 5.1 -3 5.4 -2.1 0.2 -2.8 0.9 -2.9 2.5 -0.4 9.8 -0.3 12.7 0.6 12.4 0.6 -0.2 1.1 -2.2 1.3 -4.5 0.3 -3.4 0.7 -4.2 2.3 -4.2 1.7 0 1.9 0.7 1.9 5.9 0 6.9 -0.6 7.6 -8.7 10 l-5.8 1.7 -0.3 4.7 c-0.2 2.6 -0.8 4.7 -1.3 4.7 -0.7 0 -0.9 2.8 -0.5 7.8 1.6 20.9 1.8 38.8 0.4 39.9 -1.2 0.9 -17.4 5.3 -19.6 5.3 -0.5 0 -1.4 -0.6 -2 -1.2z"/>
  <path d="M53.1 185.3 c-4 -0.9 -5.9 -1.8 -5.1 -2.3 0.7 -0.4 -0.7 -0.6 -3.2 -0.3 -7.1 0.8 -7.8 -0.5 -7.8 -14.9 l0 -12.1 4 0.7 c2.5 0.4 4 0.2 4 -0.4 0 -0.5 1.1 -1 2.5 -1 2.4 0 2.5 0.2 2.5 7.4 l0 7.4 9.8 2.2 c16.1 3.6 16.6 3.8 9.5 3.9 -3.4 0.1 -6.4 0.5 -6.8 1 -0.3 0.6 0.7 0.9 2.2 0.8 4.6 -0.3 3.7 3.2 -1.2 4.9 -4.7 1.6 -5.5 1.7 -3.5 0.4 1.2 -0.8 0.9 -1 -1.1 -1 -1.5 0 -2.9 0.7 -3.3 1.6 -0.3 0.8 -0.2 1.3 0.2 1.1 0.4 -0.2 2.1 0.2 3.7 0.9 3.9 1.7 1.6 1.6 -6.4 -0.3z"/>
  <path d="M197 179.1 c0 -0.5 -0.8 -1.2 -1.7 -1.4 -1.4 -0.4 -1.2 -0.5 0.5 -0.6 1.3 -0.1 2.2 0.5 2.2 1.4 0 0.8 -0.2 1.5 -0.5 1.5 -0.3 0 -0.5 -0.4 -0.5 -0.9z"/>
  <path d="M37 127.6 c0 -0.8 -2.5 -2 -6.2 -3.1 -7.4 -2 -8.8 -3.4 -8.8 -9.2 0 -3.6 0.3 -4.3 2 -4.3 1.7 0 2 0.7 2 4 l0 4 6 1.7 c5.8 1.6 6 1.7 6 5 0 1.8 -0.2 3.3 -0.5 3.3 -0.3 0 -0.5 -0.6 -0.5 -1.4z"/>
  <path d="M85 127 c0 -0.7 -0.7 -0.9 -1.6 -0.6 -1.2 0.5 -1.5 0.2 -1 -0.9 0.3 -1 0.2 -1.3 -0.5 -1 -1.1 0.7 -5.7 -1.9 -7.6 -4.4 -0.7 -0.9 -1.3 -3.2 -1.3 -5.2 0 -3.7 1.8 -6.1 6.2 -8.3 1.3 -0.6 2.4 -1.8 2.5 -2.6 0.1 -0.8 0.7 -6.2 1.4 -12 1 -8.5 1.4 -9.9 2 -7.5 0.5 1.8 0.4 3.2 -0.2 3.6 -0.8 0.5 -0.8 0.9 0 1.3 1.4 0.9 2.6 -1.9 1.5 -3.5 -0.4 -0.8 -0.3 -0.9 0.4 -0.5 0.7 0.4 1.2 0.1 1.2 -0.6 0 -0.9 0.3 -0.9 1 0.2 1.3 2 1.3 3.9 0 2 -0.8 -1.2 -1 -0.9 -0.7 1.2 0.4 4 1.5 4.4 2.9 1.2 l1.2 -2.9 0.4 3.5 c0.4 3 0.6 3.2 1.3 1.5 0.6 -1.3 0.7 -0.3 0.4 3 -0.3 2.8 -0.5 6.4 -0.5 8 -0.1 2.3 -0.3 2.6 -1 1.5 -0.5 -0.8 -1 -1 -1 -0.5 0 0.6 0.5 1.6 1.1 2.2 0.9 0.9 0.5 1.8 -1.5 3.8 -2.6 2.6 -3.6 7.8 -1.6 9 0.5 0.3 0.8 2 0.6 3.8 -0.3 1.8 -0.5 3.9 -0.6 4.7 -0.1 1.1 -0.3 1 -0.9 -0.4 -0.7 -1.7 -0.8 -1.7 -2.4 -0.2 -1 1.1 -1.7 1.3 -1.7 0.6z m8 -29.7 c0 -0.8 -0.4 -1.2 -0.9 -0.9 -0.4 0.3 -0.6 -0.7 -0.4 -2.2 0.3 -2.3 0.2 -2.4 -0.6 -0.7 -1.4 3 -1.3 5.2 0.4 5.2 0.8 0 1.5 -0.7 1.5 -1.4z"/>
  <path d="M183 124.9 c0 -0.5 -0.7 -0.6 -1.5 -0.3 -1 0.4 -1.3 0 -1 -1.5 0.2 -1.3 -0.1 -1.8 -1 -1.5 -1.4 0.6 -1.5 -1.9 -0.2 -3.2 1.1 -1.2 0.8 -4.9 -0.5 -6.3 -1 -1.1 -1 -1.3 0 -0.7 0.6 0.4 1.2 0.2 1.2 -0.4 0 -0.6 0.5 -0.8 1 -0.5 0.6 0.3 1 0.1 1 -0.6 0 -0.6 0.8 -1.8 1.8 -2.5 2 -1.5 3.6 -1.8 2.8 -0.5 -0.4 0.5 0.2 0.7 1.2 0.4 1 -0.2 3 0.5 4.5 1.7 2.2 1.7 2.7 3 2.7 6.5 0 3.6 -0.5 4.8 -3.1 6.9 -1.7 1.4 -3.4 2.6 -3.7 2.7 -4.1 0.5 -5.2 0.4 -5.2 -0.2z"/>
  <path d="M45 121 c0 -0.5 -1.1 -1 -2.5 -1 -2 0 -2.5 -0.5 -2.5 -2.5 l0 -2.5 4.7 1.8 c5.4 2 7.2 5.2 2.9 5.2 -1.4 0 -2.6 -0.4 -2.6 -1z"/>
  <path d="M22 98.3 c0 -3.4 1.2 -6.3 2.6 -6.3 1 0 1.4 1.3 1.4 4 0 3.3 -0.3 4 -2 4 -1.2 0 -2 -0.7 -2 -1.7z"/>
  <path d="M47 94 c0 -2.3 0.4 -3 2 -3 1.3 0 2 0.7 2 2 0 1 -0.9 2.4 -2 3 -1.8 1 -2 0.8 -2 -2z"/>
  <path d="M36 79 c0 -3.3 0.3 -4 2 -4 1.7 0 2 0.7 2 4 0 3.3 -0.3 4 -2 4 -1.7 0 -2 -0.7 -2 -4z"/>
  <path d="M48 53.5 c0 -3.3 0.2 -3.5 3.5 -3.5 3.9 0 5 2.4 1.5 3.3 -1.1 0.3 -2 1.2 -2 2.1 0 0.9 -0.7 1.6 -1.5 1.6 -1 0 -1.5 -1.1 -1.5 -3.5z"/>
  <path d="M82 46.1 c0 -1.8 3.9 -3.1 9.8 -3.1 4.4 0 2.3 2.8 -2.8 3.9 -6.7 1.4 -7 1.4 -7 -0.8z"/>
  <path d="M36 43.2 c0 -1.9 1.8 -4.2 3.2 -4.2 0.4 0 0.8 1.4 0.8 3 0 2.3 -0.4 3 -2 3 -1.3 0 -2 -0.7 -2 -1.8z"/>
  <path d="M42 39.6 c0 -1.3 2.8 -2.6 5.8 -2.6 0.6 0 1.2 0.9 1.2 2 0 1.6 -0.7 2 -3.5 2 -2.3 0 -3.5 -0.5 -3.5 -1.4z"/>
  <path d="M122 39 c0 -1.6 0.7 -2 3.5 -2 4 0 4.9 2.4 1.3 3.4 -3.8 1 -4.8 0.7 -4.8 -1.4z"/>
  <path d="M52 37.6 c0 -0.9 1.9 -1.8 5 -2.5 6.7 -1.4 7 -1.4 7 0.8 0 1.4 -1 2 -3.7 2.5 -6 0.9 -8.3 0.7 -8.3 -0.8z"/>
  <path d="M67 34.6 c0 -1.3 2.8 -2.6 5.8 -2.6 0.6 0 1.2 0.9 1.2 2 0 1.6 -0.7 2 -3.5 2 -2.3 0 -3.5 -0.5 -3.5 -1.4z"/>
  <path d="M87 30.6 c0 -1.3 2.8 -2.6 5.8 -2.6 0.6 0 1.2 0.9 1.2 2 0 1.6 -0.7 2 -3.5 2 -2.3 0 -3.5 -0.5 -3.5 -1.4z"/>
  <path d="M98 28.5 c0 -0.8 0.2 -1.5 0.4 -1.5 0.2 0 4.8 -0.9 10.1 -2 11.8 -2.4 11.5 -2.4 11.5 -0.2 0 1.5 -1.6 2.1 -8.8 3.5 -10.9 2.1 -13.2 2.1 -13.2 0.2z"/>
 </g>
 <g fill="#50abf2">
  <path d="M229.2 178.6 c-0.1 -1.3 -0.7 -1.6 -1.9 -1.2 -1.6 0.5 -1.6 0.4 -0.3 -0.6 1.4 -1.3 1.5 -2.9 1 -15.8 -0.2 -3.2 -0.3 -3.3 -0.9 -1 -0.6 1.8 -1 -0.1 -1.5 -6.5 -1 -12.4 -1.3 -13.3 -1.5 -4 -0.2 8 -1.2 8.6 -2.5 1.5 -0.4 -2.4 -0.3 -3 0.4 -2 0.6 1 0.7 -2.6 0.3 -10.4 -0.6 -10.9 -0.5 -11.9 1 -11.3 1 0.4 1.7 0.2 1.7 -0.4 0 -0.6 0.4 -0.8 0.8 -0.5 0.4 0.2 1.4 0 2.2 -0.5 1.2 -0.8 1.2 -1.2 0.3 -1.6 -1.5 -0.5 -1.8 -3.3 -0.4 -3.3 1 0 2.7 -3.9 2.3 -5.3 -0.1 -0.5 0.2 -0.6 0.7 -0.3 0.5 0.4 0.8 1.5 0.6 2.6 -0.2 1.1 -0.2 2 0.1 2 1 0 3.1 -2.6 3.8 -4.7 0.5 -1.6 0.1 -2.2 -1.9 -2.7 -2.5 -0.6 -2.5 -0.6 -0.5 -2.6 1.1 -1.1 2.1 -2.7 2.1 -3.5 0.1 -0.8 0.2 -2.5 0.3 -3.6 0.1 -2.9 3.3 -4.9 4.5 -3 0.7 1.1 1 0.7 1.3 -1.5 0.2 -1.8 0.9 -2.9 1.8 -2.9 1.2 0 1.5 2 1.5 12 0 6.6 -0.4 12.6 -1 13.4 -0.8 1.2 -0.7 1.3 0.5 0.6 1.3 -0.7 1.3 -0.6 0.2 0.7 -0.7 0.9 -4.2 2.4 -7.7 3.4 l-6.5 1.9 -0.3 26.5 c-0.1 14.6 -0.3 25.7 -0.5 24.6z m-3 -44.9 c0.8 0.4 0.9 0 0.4 -1.2 -0.4 -1 -0.2 -2.1 0.4 -2.5 0.8 -0.5 0.6 -0.9 -0.4 -1.3 -0.9 -0.4 -1.6 -0.1 -1.6 0.6 0 0.8 -0.4 0.6 -1 -0.3 -0.6 -0.9 -1 -1 -1 -0.3 0 0.6 0.4 1.4 0.9 1.7 0.4 0.3 0.7 1.8 0.5 3.3 -0.2 1.6 -0.1 2 0.2 1 0.3 -0.9 1 -1.4 1.6 -1z"/>
  <path d="M49 159.8 c0 -1.8 -0.2 -2 -0.9 -0.9 -1 1.5 -6.4 1.8 -9.3 0.6 -1.3 -0.5 -1.8 -1.9 -1.8 -5.2 0 -5.8 1.6 -7.3 7.9 -7.3 l5.1 0 0 7.5 c0 4.1 -0.2 7.5 -0.5 7.5 -0.3 0 -0.5 -1 -0.5 -2.2z"/>
  <path d="M40.7 125.3 c-0.4 -0.3 -0.7 -2.1 -0.7 -3.9 0 -2.8 0.5 -3.5 2.6 -4 5 -1.3 8.6 2.4 6.8 7 -0.6 1.6 -7.3 2.3 -8.7 0.9z"/>
  <path d="M77.6 121.6 c0.3 -0.7 0 -2.3 -0.5 -3.7 -0.5 -1.3 -1 -1.9 -1 -1.3 -0.1 0.6 -0.8 1.1 -1.6 1.1 -1.8 0 -2 -4.4 -0.4 -6.7 0.9 -1.3 1 -1.3 0.6 0.2 -0.3 0.9 -0.1 1.9 0.6 2.2 0.9 0.3 0.9 0.5 0 0.5 -0.7 0.1 -1.3 0.6 -1.3 1.1 0 0.6 1.1 0.8 2.5 0.6 1.4 -0.3 2.3 -0.1 2 0.5 -0.4 0.5 -0.1 0.9 0.5 0.9 0.6 0 0.8 0.5 0.4 1.2 -0.5 0.8 -0.1 0.9 1.2 0.5 1.8 -0.7 1.8 -0.6 0.1 0.7 -1.3 1 -1.4 1.5 -0.5 1.8 0.7 0.3 0.3 0.7 -0.9 1 -1.4 0.4 -2 0.2 -1.7 -0.6z"/>
  <path d="M191.4 122.1 c0.4 -0.6 0 -1.4 -0.9 -1.8 -1.6 -0.5 -1.5 -0.7 0.1 -1.7 1.1 -0.5 2.5 -1.1 3.2 -1.2 1.7 -0.3 1.5 1.3 -0.4 2 -0.8 0.3 -1.3 1 -0.9 1.5 0.3 0.5 0 1.3 -0.6 1.7 -0.8 0.4 -0.9 0.3 -0.5 -0.5z"/>
  <path d="M78.1 113 c-0.8 -0.4 -1.5 -1.8 -1.6 -3.1 -0.2 -1.8 0 -1.9 0.9 -0.7 0.6 0.8 1.4 1.6 1.9 1.6 0.8 0.2 1 0.9 0.5 2.2 -0.2 0.6 -0.9 0.6 -1.7 0z"/>
 </g>
 <g fill="#55b3ed">
  <path d="M228.9 155.8 c-0.1 -6.2 -0.3 -14.6 -0.5 -18.7 -0.2 -4.1 0.1 -8.2 0.6 -9 0.6 -1 1 5.9 1 18.7 0 11.1 -0.2 20.2 -0.5 20.2 -0.3 0 -0.6 -5.1 -0.6 -11.2z"/>
  <path d="M49.2 157 c-0.3 -2.9 -3.1 -8.2 -3.2 -6 0 1.1 -0.3 1.1 -1.2 0.2 -1.9 -1.9 -2.8 -1.4 -2.8 1.7 0 3.9 -3 5.1 -3.1 1.3 l-0.1 -2.7 -0.8 3 c-0.5 1.8 -0.8 -3.3 -0.9 -12.7 l-0.1 -15.7 -4 -1.2 c-4.8 -1.4 -5.4 -3.9 -1 -3.9 2 0 3 -0.5 3 -1.5 0 -0.8 0.5 -1.5 1 -1.5 0.6 0 1 -1.3 1 -3 0 -3.4 2.5 -4.2 3.3 -1 0.3 1.2 1.7 2.2 3.4 2.6 6.4 1.3 6.4 1.1 6 23 -0.1 11 -0.4 18.8 -0.5 17.4z m-3.2 -35.5 c0 -0.9 -0.6 -1.2 -1.5 -0.9 -0.8 0.4 -1.2 1 -0.9 1.5 0.8 1.4 2.4 1 2.4 -0.6z"/>
  <path d="M24.2 122.2 c-0.7 -0.5 -1.4 -2.7 -1.6 -5 -0.3 -3.5 0 -4.2 1.4 -4.2 1.2 0 1.9 1.1 2.4 3.8 1 6.4 0.7 7.2 -2.2 5.4z"/>
  <path d="M22 101.8 c0 -4.8 1 -7.8 2.6 -7.8 1 0 1.4 1.5 1.4 5.5 0 4.8 -0.2 5.5 -2 5.5 -1.6 0 -2 -0.7 -2 -3.2z"/>
  <path d="M38 98.7 c0 -2.9 0.4 -3.4 4.3 -4.7 l4.2 -1.5 0.3 -10.2 c0.2 -9.5 0.4 -10.3 2.2 -10.3 1.9 0 2 0.7 2 10.4 0 5.7 -0.3 11.1 -0.6 12 -0.3 0.8 -2.8 2.2 -5.5 3.1 -2.8 1 -4.9 2.3 -4.9 3.1 0 0.8 -0.4 1.4 -1 1.4 -0.5 0 -1 -1.5 -1 -3.3z"/>
  <path d="M32 89.6 c0 -0.7 0.9 -1.6 2 -1.9 2.2 -0.6 2.3 -1.1 2 -18.4 -0.1 -9.8 -0.1 -10.3 1.9 -10.3 2 0 2.1 0.5 2.1 11.4 0 6.2 -0.3 13.4 -0.6 16 -0.6 4.4 -0.8 4.6 -4 4.6 -2.2 0 -3.4 -0.5 -3.4 -1.4z"/>
  <path d="M52 51 c0 -1.6 0.7 -2 3.5 -2 4 0 4.9 2.4 1.3 3.4 -3.8 1 -4.8 0.7 -4.8 -1.4z"/>
  <path d="M70 48.1 c0 -1.8 3.9 -3.1 9.8 -3.1 4.4 0 2.3 2.8 -2.8 3.9 -6.7 1.4 -7 1.4 -7 -0.8z"/>
  <path d="M110 41 c0 -1.6 0.7 -2 3.5 -2 4 0 4.9 2.4 1.3 3.4 -3.8 1 -4.8 0.7 -4.8 -1.4z"/>
  <path d="M133 38 c0 -0.5 0.5 -1 1.1 -1 0.5 0 0.7 -0.4 0.4 -1 -0.4 -0.6 0.5 -1 1.9 -1 2.9 0 3.6 2.4 1 3.4 -2.4 0.9 -4.4 0.7 -4.4 -0.4z"/>
  <path d="M83 31.6 c0 -1.3 2.8 -2.6 5.8 -2.6 0.6 0 1.2 0.9 1.2 2 0 1.6 -0.7 2 -3.5 2 -2.3 0 -3.5 -0.5 -3.5 -1.4z"/>
  <path d="M135 21.6 c0 -0.7 0.9 -1.6 2 -1.9 1.5 -0.4 2 0 2 1.4 0 1.2 -0.7 1.9 -2 1.9 -1.1 0 -2 -0.6 -2 -1.4z"/>
 </g>
 <g fill="#5dc1ec">
  <path d="M37.1 133 c-0.2 -4.1 -0.3 -7.9 -0.2 -8.3 0.1 -0.5 -0.3 -0.6 -0.8 -0.3 -1.4 0.9 -10.8 -1.4 -12.1 -2.9 -1.4 -1.7 -2.4 -14.4 -1.6 -19.1 0.4 -2 1.3 -3.4 2.1 -3.4 1.2 0 1.5 1.5 1.5 7 0 3.9 0.4 7 0.9 7 0.4 0 2.2 -1.3 3.9 -3 1.8 -1.6 3.6 -3 4.2 -3 1.1 0 1.3 -7 0.4 -11.9 -0.7 -3.5 -2.4 -3.9 -6.8 -1.6 -4.1 2.2 -5.8 1.9 -5.4 -0.7 0.2 -1.9 1.4 -2.6 6.5 -3.8 l6.2 -1.5 0.7 -6.8 0.7 -6.9 3.4 0.5 c6 1 6.3 0.5 6.3 -9.9 0 -8.7 0.1 -9.4 2 -9.4 1.9 0 2 0.6 1.9 8.8 -0.1 4.8 -0.4 13.9 -0.8 20.2 l-0.6 11.5 -4.5 1.6 -4.5 1.7 -0.3 8.3 c-0.2 6.6 0 8.4 1.3 9.1 2.2 1.3 1.9 2.7 -1 4 -2 0.9 -2.2 1.4 -1.4 3.1 0.8 1.4 0.8 2.2 0.1 2.6 -0.6 0.4 -1.3 3.8 -1.5 7.6 l-0.3 7 -0.3 -7.5z"/>
  <path d="M36.6 62.8 c-1.1 -4.4 -0.7 -20.3 0.7 -22.2 0.9 -1.3 7.1 -2.9 23.7 -6.2 12.4 -2.4 22.8 -4.4 23.3 -4.4 0.4 0 0.7 0.8 0.7 1.8 0 1.5 -3.2 2.4 -22.5 6.2 l-22.5 4.4 0 11.3 c0 9 -0.3 11.3 -1.4 11.3 -0.7 0 -1.6 -1 -2 -2.2z"/>
  <path d="M51 51 c0 -1.4 0.7 -2 2.3 -2 1.2 0 6.9 -0.9 12.7 -1.9 42.1 -7.8 64.3 -11.2 65.2 -10.3 1.2 1.2 4.1 0.4 3.2 -0.9 -0.3 -0.5 0.6 -0.9 2 -0.9 1.6 0 2.6 0.6 2.6 1.4 0 1.8 -0.2 1.8 -48.2 10.1 -7.9 1.3 -19.6 3.3 -26.1 4.5 -14.5 2.4 -13.7 2.4 -13.7 0z"/>
  <path d="M88 30.5 c0 -0.8 0.2 -1.5 0.4 -1.5 0.3 0 10.8 -2 23.4 -4.5 12.6 -2.5 23.4 -4.5 24.1 -4.5 0.6 0 1.1 0.8 1.1 1.8 0 1.4 -1.3 2 -6.2 2.9 -3.5 0.6 -13.5 2.5 -22.3 4.2 -18.3 3.5 -20.5 3.7 -20.5 1.6z"/>
 </g>
 <g fill="#62cef1">
  <path d="M24.2 121.8 c-1.8 -1.8 -1.6 -10.8 0.3 -10.8 0.8 0 1.5 -0.9 1.5 -1.9 0 -1.1 0.6 -2.6 1.4 -3.3 0.7 -0.8 1.6 -2.7 1.9 -4.3 0.3 -1.7 0.9 -4.2 1.3 -5.7 0.6 -2.6 0.4 -2.8 -2.5 -2.8 -5.4 0 -3.7 -2.6 2.7 -4.2 l5.7 -1.4 0.3 -14.2 c0.2 -13.9 0.3 -14.2 2.5 -14.2 2.7 -0.1 4.8 -1.7 6.6 -5.3 0.8 -1.5 2 -2.7 2.8 -2.7 0.7 0 1.3 -0.4 1.3 -0.8 0 -0.7 13.4 -3.2 17.3 -3.2 0.9 0 1.7 0.6 1.7 1.4 0 1.4 -3 2.2 -14.1 4.1 -3.3 0.5 -3.7 0.9 -4.3 4.3 -0.3 2 -0.6 7.4 -0.6 11.8 0 8.7 -0.4 9.4 -5.5 9.4 -1.8 0 -2.4 0.7 -2.9 3.9 -0.3 2.1 -1.3 4.1 -2.1 4.5 -1.7 0.6 -2.1 6.6 -0.5 6.6 0.5 0 0.9 0.3 0.9 0.8 -0.4 2.1 0.3 3.2 1.9 3.3 1.3 0 1.2 0.2 -0.6 0.9 -2 0.8 -2.2 1.6 -2.2 7.5 0 3.7 -0.4 6.5 -1 6.5 -0.5 0 -1 -0.5 -1 -1 0 -0.6 -1.4 0.3 -3.1 2 -3.3 3.1 -3.9 3.3 -7.6 3 -1.8 -0.1 -2.3 0.4 -2.3 2 0 1.7 0.5 2.1 1.9 1.7 1 -0.2 2.5 -0.1 3.2 0.4 1.2 0.7 1.1 0.9 -0.1 0.9 -1.3 0 -1.3 0.1 0 1 1.2 0.8 1 1 -1 1 -1.5 0 -3.1 -0.5 -3.8 -1.2z m15.8 -42.2 c0 -0.8 -0.4 -1.8 -1 -2.1 -0.5 -0.3 -1 0.3 -1 1.4 0 1.2 0.5 2.1 1 2.1 0.6 0 1 -0.6 1 -1.4z"/>
  <path d="M73 47.3 c0 -1.5 2.6 -2.2 17.3 -4.7 23.5 -4 24.7 -4.1 24.7 -2.3 0 1.7 -1.9 2.2 -25.4 6.2 -17.7 3 -16.6 2.9 -16.6 0.8z"/>
  <path d="M37.2 41.8 c0.3 -1.9 1.5 -2.5 7.8 -4 9.5 -2.2 10 -2.2 10 0.1 0 1.5 -1.2 2.1 -6.5 3.1 -3.6 0.7 -6.8 1.6 -7.1 2.1 -0.3 0.5 -1.4 0.9 -2.5 0.9 -1.5 0 -2 -0.6 -1.7 -2.2z"/>
  <path d="M119 39.6 c0 -0.9 -0.4 -1.6 -1 -1.6 -0.5 0 -1 -2.1 -1 -4.6 l0 -4.6 8.5 0.3 c8.3 0.4 8.5 0.3 8.5 -1.8 0 -1.8 0.6 -2.3 2.5 -2.3 2.4 0 2.5 0.2 2.5 6.4 0 6.2 -0.1 6.4 -2.7 6.9 -3.1 0.6 -4.4 0 -2.6 -1.1 0.7 -0.5 0.9 -1.3 0.4 -2.1 -1.2 -1.9 -3.3 -0.3 -2.6 1.9 0.6 1.9 0.3 2 -8.7 3.6 -3.1 0.5 -3.8 0.3 -3.8 -1z"/>
  <path d="M59 36.6 c0 -0.9 1.9 -1.8 5 -2.5 6.7 -1.4 7 -1.4 7 0.8 0 1.4 -1 2 -3.7 2.5 -6 0.9 -8.3 0.7 -8.3 -0.8z"/>
  <path d="M74 33.6 c0 -1.4 2.7 -2.2 13.3 -4.1 3.2 -0.6 3.7 -0.5 3.7 1.2 0 1.6 -1.1 2.2 -6.4 3.1 -8.3 1.6 -10.6 1.5 -10.6 -0.2z"/>
  <path d="M94 29.6 c0 -1.3 2.8 -2.6 5.8 -2.6 0.6 0 1.2 0.9 1.2 2 0 1.6 -0.7 2 -3.5 2 -2.3 0 -3.5 -0.5 -3.5 -1.4z"/>
  <path d="M110 26.5 c0 -0.8 0.2 -1.5 0.4 -1.5 0.2 0 6.1 -1.1 13 -2.5 15 -3 14.6 -3 14.6 -0.7 0 1.4 -2 2.1 -11.7 4 -13.9 2.6 -16.3 2.7 -16.3 0.7z"/>
 </g>
 <g fill="#65d9f3">
  <path d="M23 103.5 c0 -7.8 0.4 -11.6 1.3 -12.3 0.6 -0.5 3.3 -1.4 6 -2 4.2 -0.9 4.9 -0.8 5.8 1 1.2 2.2 0.2 6.1 -1.3 5.2 -0.6 -0.4 -0.8 0.1 -0.4 1.4 0.4 1.1 0.2 2.3 -0.4 2.7 -0.6 0.3 -0.8 1.1 -0.5 1.6 0.4 0.5 0.1 0.9 -0.4 0.9 -0.6 0 -1.1 1.3 -1.1 2.9 0 1.6 -0.5 3.1 -1.2 3.3 -0.6 0.2 -1.2 1.5 -1.3 2.8 -0.1 1.9 -0.9 2.6 -3.3 3.1 l-3.2 0.6 0 -11.2z"/>
  <path d="M37.1 54.4 c-0.1 -9.7 0.2 -13.4 1.2 -14.2 1.2 -1.1 95.9 -20.2 99.8 -20.2 0.5 0 0.9 4.1 0.9 9 0 5 -0.3 9 -0.7 9 -0.9 0 -13.4 2.1 -29.3 4.9 -23.9 4.2 -35.8 6.3 -46.4 8 -9.1 1.6 -11.2 2.3 -12.7 4.2 -1 1.3 -1.9 3 -1.9 3.7 0 0.6 -0.4 1.2 -1 1.2 -0.5 0 -1.7 1.5 -2.6 3.2 -1.6 3.2 -1.7 3.2 -2.5 1 -1.2 -3.1 -3.7 -2.8 -4.2 0.6 -0.2 1.5 -0.5 -3.2 -0.6 -10.4z m98.9 -19.4 c0 -0.9 -2.9 -1.5 -5.7 -1.1 -0.7 0.1 -1.3 -0.2 -1.3 -0.7 0 -0.4 -2 -0.9 -4.5 -1.1 -3.1 -0.1 -4.5 0.2 -4.5 1.1 0 0.9 1.8 1.4 5.2 1.6 3.3 0.2 5.6 0.8 6.1 1.8 0.6 1.1 1.3 1.2 2.8 0.4 1 -0.6 1.9 -1.5 1.9 -2z"/>
 </g>
</svg>